<svg xmlns="http://www.w3.org/2000/svg" xmlns:xlink="http://www.w3.org/1999/xlink" id="图层_1" x="0" y="0" version="1.1" viewBox="0 0 96.6 100.4" xml:space="preserve" style="enable-background:new 0 0 96.6 100.4"><style type="text/css">.st0{opacity:.3}.st1{fill:url(#SVGID_1_)}.st2{fill:url(#SVGID_2_)}.st3{fill:url(#SVGID_3_)}.st4{fill:url(#SVGID_4_)}.st5{fill:url(#SVGID_5_)}.st6{fill:url(#SVGID_6_)}.st7{opacity:.3;fill:url(#SVGID_7_);enable-background:new}.st8{fill:url(#SVGID_8_)}.st9{fill:url(#SVGID_9_)}.st10{fill:url(#SVGID_10_)}.st11{fill:url(#SVGID_11_)}.st12{fill:url(#SVGID_12_)}.st13{fill:url(#SVGID_13_)}.st14{fill:url(#SVGID_14_)}.st15{fill:url(#SVGID_15_)}.st16{fill:url(#SVGID_16_)}.st17{fill:url(#SVGID_17_)}.st18{fill:url(#SVGID_18_)}.st19{fill:url(#SVGID_19_)}.st20{fill:url(#SVGID_20_)}.st21{fill:url(#SVGID_21_)}.st22{fill:url(#SVGID_22_)}.st23{fill:url(#SVGID_23_)}.st24{fill:url(#SVGID_24_)}.st25{fill:url(#SVGID_25_)}.st26{opacity:.3;fill:url(#SVGID_26_);enable-background:new}.st27{fill:url(#SVGID_27_)}.st28{fill:url(#SVGID_28_)}.st29{fill:url(#SVGID_29_)}.st30{fill:url(#SVGID_30_)}.st31{fill:url(#SVGID_31_)}.st32{fill:url(#SVGID_32_)}.st33{fill:url(#SVGID_33_)}.st34{fill:url(#SVGID_34_)}.st35{fill:url(#SVGID_35_)}.st36{fill:url(#SVGID_36_)}.st37{fill:url(#SVGID_37_)}.st38{fill:url(#SVGID_38_)}.st39{fill:url(#SVGID_39_)}.st40{fill:url(#SVGID_40_)}.st41{fill:url(#SVGID_41_)}.st42{fill:url(#SVGID_42_)}.st43{fill:url(#SVGID_43_)}.st44{fill:url(#SVGID_44_)}.st45{fill:url(#SVGID_45_)}.st46{fill:url(#SVGID_46_)}.st47{fill:url(#SVGID_47_)}.st48{fill:url(#SVGID_48_)}.st49{fill:url(#SVGID_49_)}.st50{fill:url(#SVGID_50_)}.st51{fill:url(#SVGID_51_)}.st52{fill:url(#SVGID_52_)}.st53{fill:url(#SVGID_53_)}.st54{fill:url(#SVGID_54_)}.st55{fill:url(#SVGID_55_)}.st56{fill:url(#SVGID_56_)}.st57{fill:url(#SVGID_57_)}.st58{fill:url(#SVGID_58_)}.st59{fill:url(#SVGID_59_)}.st60{fill:url(#SVGID_60_)}.st61{fill:url(#SVGID_61_)}.st62{fill:url(#SVGID_62_)}.st63{fill:url(#SVGID_63_)}.st64{fill:url(#SVGID_64_)}.st65{fill:url(#SVGID_65_)}.st66{fill:url(#SVGID_66_)}.st67{fill:url(#SVGID_67_)}.st68{fill:url(#SVGID_68_)}.st69{fill:url(#SVGID_69_)}.st70{fill:url(#SVGID_70_)}.st71{fill:url(#SVGID_71_)}.st72{fill:url(#SVGID_72_)}.st73{fill:url(#SVGID_73_)}.st74{fill:url(#SVGID_74_)}.st75{fill:#00af92;stroke:#00af92;stroke-width:.75;stroke-linecap:round;stroke-linejoin:round}.st76{opacity:.15;fill:#00af92;enable-background:new}.st77{fill:none;stroke:#00af92;stroke-width:.75;stroke-linecap:round;stroke-linejoin:round}</style><g id="图层_2_1_"><g id="Diagram"><g class="st0"><g><linearGradient id="SVGID_1_" x1="72.067" x2="72.067" y1="74.18" y2="51.37" gradientTransform="matrix(1 0 0 -1 0 102)" gradientUnits="userSpaceOnUse"><stop offset="0" style="stop-color:#ccc;stop-opacity:.8"/><stop offset="1" style="stop-color:#999;stop-opacity:.4"/></linearGradient><path d="M52.7,50.6c-0.2,0-0.4-0.2-0.4-0.4c0-0.2,0.1-0.3,0.2-0.4l38.7-22c0.2-0.1,0.5-0.1,0.6,0.1 c0.1,0.2,0.1,0.5-0.1,0.6c0,0,0,0-0.1,0l-38.7,22C52.9,50.6,52.8,50.6,52.7,50.6z" class="st1"/></g><g><linearGradient id="SVGID_2_" x1="33.356" x2="33.356" y1="97.192" y2="73.34" gradientTransform="matrix(1 0 0 -1 0 102)" gradientUnits="userSpaceOnUse"><stop offset="0" style="stop-color:#ccc;stop-opacity:.8"/><stop offset="1" style="stop-color:#999;stop-opacity:.4"/></linearGradient><path d="M14,28.7c-0.1,0-0.3-0.1-0.4-0.2c-0.1-0.2-0.1-0.5,0.1-0.6c0,0,0,0,0,0l38.7-23c0.2-0.1,0.5-0.1,0.6,0.1 c0.1,0.2,0.1,0.5-0.1,0.6c0,0,0,0,0,0l-38.7,23C14.1,28.6,14.1,28.7,14,28.7z" class="st2"/></g><g><linearGradient id="SVGID_3_" x1="1171.855" x2="1171.855" y1="-2684.16" y2="-2638.35" gradientTransform="matrix(-1 0 0 1 1185.85 2711.99)" gradientUnits="userSpaceOnUse"><stop offset="0" style="stop-color:#ccc;stop-opacity:.8"/><stop offset="1" style="stop-color:#999;stop-opacity:.4"/></linearGradient><path d="M14,73.6c-0.2,0-0.4-0.2-0.4-0.4v-45c0-0.2,0.1-0.4,0.4-0.5c0.2,0,0.4,0.1,0.5,0.4c0,0,0,0.1,0,0.1v45 C14.4,73.4,14.2,73.6,14,73.6C14,73.6,14,73.6,14,73.6z" class="st3"/></g><g><linearGradient id="SVGID_4_" x1="91.41" x2="91.41" y1="28.36" y2="74.201" gradientTransform="matrix(1 0 0 -1 0 102)" gradientUnits="userSpaceOnUse"><stop offset="0" style="stop-color:#ccc;stop-opacity:.8"/><stop offset="1" style="stop-color:#999;stop-opacity:.4"/></linearGradient><path d="M91.4,73.6c-0.2,0-0.4-0.2-0.4-0.4v-45c0-0.2,0.2-0.4,0.4-0.4s0.4,0.2,0.4,0.4c0,0,0,0,0,0v45 C91.8,73.5,91.6,73.6,91.4,73.6z" class="st4"/></g><g><linearGradient id="SVGID_5_" x1="52.705" x2="52.705" y1="6.4" y2="52.24" gradientTransform="matrix(1 0 0 -1 0 102)" gradientUnits="userSpaceOnUse"><stop offset="0" style="stop-color:#ccc;stop-opacity:.8"/><stop offset="1" style="stop-color:#999;stop-opacity:.4"/></linearGradient><path d="M52.7,95.6c-0.2,0-0.4-0.2-0.4-0.4v-45c0-0.2,0.2-0.4,0.4-0.4c0.2,0,0.4,0.2,0.4,0.4c0,0,0,0,0,0v45 C53.1,95.4,52.9,95.6,52.7,95.6C52.7,95.6,52.7,95.6,52.7,95.6z" class="st5"/></g><g><linearGradient id="SVGID_6_" x1="1207.145" x2="1207.145" y1="-2703.36" y2="-2749.2" gradientTransform="matrix(-1 0 0 1 1259.8501 2753.99)" gradientUnits="userSpaceOnUse"><stop offset="0" style="stop-color:#ccc;stop-opacity:.8"/><stop offset="1" style="stop-color:#999;stop-opacity:.4"/></linearGradient><path d="M52.7,50.6c-0.2,0-0.4-0.2-0.4-0.4v-45c0-0.2,0.2-0.4,0.4-0.4c0.2,0,0.4,0.2,0.4,0.4c0,0,0,0,0,0v45 C53.1,50.4,52.9,50.6,52.7,50.6C52.7,50.6,52.7,50.6,52.7,50.6z" class="st6"/></g><g><linearGradient id="SVGID_7_" x1="29.634" x2="106.794" y1="31.065" y2="100.365" gradientTransform="matrix(1 0 0 -1 0 102)" gradientUnits="userSpaceOnUse"><stop offset="0" style="stop-color:gray"/><stop offset="1" style="stop-color:gray"/></linearGradient><circle cx="52.7" cy="50.2" r="29.3" class="st7"/></g><g><linearGradient id="SVGID_8_" x1="46.112" x2="57.822" y1="90.088" y2="101.948" gradientTransform="matrix(1 0 0 -1 0 102)" gradientUnits="userSpaceOnUse"><stop offset="0" style="stop-color:#ccc;stop-opacity:.8"/><stop offset="1" style="stop-color:#999;stop-opacity:.4"/></linearGradient><circle cx="52.7" cy="5.2" r="5.2" class="st8"/></g><g><linearGradient id="SVGID_9_" x1="7.412" x2="19.122" y1="67.078" y2="78.938" gradientTransform="matrix(1 0 0 -1 0 102)" gradientUnits="userSpaceOnUse"><stop offset="0" style="stop-color:#ccc;stop-opacity:.8"/><stop offset="1" style="stop-color:#999;stop-opacity:.4"/></linearGradient><circle cx="14" cy="28.2" r="5.2" class="st9"/></g><g><linearGradient id="SVGID_10_" x1="84.812" x2="96.522" y1="67.078" y2="78.938" gradientTransform="matrix(1 0 0 -1 0 102)" gradientUnits="userSpaceOnUse"><stop offset="0" style="stop-color:#ccc;stop-opacity:.8"/><stop offset="1" style="stop-color:#999;stop-opacity:.4"/></linearGradient><circle cx="91.4" cy="28.2" r="5.2" class="st10"/></g><g><linearGradient id="SVGID_11_" x1="46.109" x2="57.819" y1=".141" y2="11.991" gradientTransform="matrix(1 0 0 -1 0 102)" gradientUnits="userSpaceOnUse"><stop offset="0" style="stop-color:#ccc;stop-opacity:.8"/><stop offset="1" style="stop-color:#999;stop-opacity:.4"/></linearGradient><circle cx="52.7" cy="95.2" r="5.2" class="st11"/></g><g><linearGradient id="SVGID_12_" x1="7.412" x2="19.122" y1="22.098" y2="33.958" gradientTransform="matrix(1 0 0 -1 0 102)" gradientUnits="userSpaceOnUse"><stop offset="0" style="stop-color:#ccc;stop-opacity:.8"/><stop offset="1" style="stop-color:#999;stop-opacity:.4"/></linearGradient><circle cx="14" cy="73.2" r="5.2" class="st12"/></g><g><linearGradient id="SVGID_13_" x1="84.812" x2="96.522" y1="22.098" y2="33.958" gradientTransform="matrix(1 0 0 -1 0 102)" gradientUnits="userSpaceOnUse"><stop offset="0" style="stop-color:#ccc;stop-opacity:.8"/><stop offset="1" style="stop-color:#999;stop-opacity:.4"/></linearGradient><circle cx="91.4" cy="73.2" r="5.2" class="st13"/></g><g><linearGradient id="SVGID_14_" x1="72.065" x2="72.065" y1="73.34" y2="97.168" gradientTransform="matrix(1 0 0 -1 0 102)" gradientUnits="userSpaceOnUse"><stop offset="0" style="stop-color:#ccc;stop-opacity:.8"/><stop offset="1" style="stop-color:#999;stop-opacity:.4"/></linearGradient><path d="M91.4,28.7c-0.1,0-0.2,0-0.2-0.1l-38.7-23c-0.2-0.1-0.2-0.4-0.1-0.6c0.1-0.2,0.4-0.2,0.5-0.1l38.7,23 c0.2,0.1,0.3,0.4,0.1,0.6C91.7,28.6,91.6,28.7,91.4,28.7z" class="st14"/></g><g><linearGradient id="SVGID_15_" x1="33.361" x2="33.361" y1="74.18" y2="51.37" gradientTransform="matrix(1 0 0 -1 0 102)" gradientUnits="userSpaceOnUse"><stop offset="0" style="stop-color:#ccc;stop-opacity:.8"/><stop offset="1" style="stop-color:#999;stop-opacity:.4"/></linearGradient><path d="M52.7,50.6c-0.1,0-0.1,0-0.2-0.1l-38.7-22c-0.2-0.1-0.3-0.4-0.2-0.6c0.1-0.2,0.4-0.3,0.6-0.2c0,0,0,0,0,0 l38.7,22c0.2,0.1,0.3,0.4,0.2,0.6C53,50.5,52.9,50.6,52.7,50.6z" class="st15"/></g><g><linearGradient id="SVGID_16_" x1="72.057" x2="72.057" y1="6.399" y2="29.2" gradientTransform="matrix(1 0 0 -1 0 102)" gradientUnits="userSpaceOnUse"><stop offset="0" style="stop-color:#ccc;stop-opacity:.8"/><stop offset="1" style="stop-color:#999;stop-opacity:.4"/></linearGradient><path d="M52.7,95.6c-0.2,0-0.3-0.1-0.4-0.2c-0.1-0.2,0-0.5,0.2-0.6l38.7-22c0.2-0.1,0.5,0,0.6,0.2 c0.1,0.2,0.1,0.4-0.1,0.6c0,0,0,0,0,0l-38.7,22C52.8,95.6,52.8,95.6,52.7,95.6z" class="st16"/></g><g><linearGradient id="SVGID_17_" x1="33.346" x2="33.346" y1="52.203" y2="28.36" gradientTransform="matrix(1 0 0 -1 0 102)" gradientUnits="userSpaceOnUse"><stop offset="0" style="stop-color:#ccc;stop-opacity:.8"/><stop offset="1" style="stop-color:#999;stop-opacity:.4"/></linearGradient><path d="M14,73.6c-0.2,0-0.4-0.2-0.4-0.4c0-0.1,0.1-0.3,0.2-0.4l38.7-23c0.2-0.1,0.5-0.1,0.6,0.1c0,0,0,0,0,0 c0.1,0.2,0,0.5-0.2,0.6l-38.7,23C14.1,73.6,14.1,73.6,14,73.6z" class="st17"/></g><g><linearGradient id="SVGID_18_" x1="72.058" x2="72.058" y1="52.202" y2="28.36" gradientTransform="matrix(1 0 0 -1 0 102)" gradientUnits="userSpaceOnUse"><stop offset="0" style="stop-color:#ccc;stop-opacity:.8"/><stop offset="1" style="stop-color:#999;stop-opacity:.4"/></linearGradient><path d="M91.4,73.6c-0.1,0-0.2,0-0.2-0.1l-38.7-23c-0.2-0.1-0.3-0.4-0.1-0.6c0,0,0,0,0,0c0.1-0.2,0.4-0.3,0.6-0.1 c0,0,0,0,0,0l38.7,23c0.2,0.1,0.3,0.4,0.2,0.6c0,0,0,0,0,0C91.7,73.6,91.6,73.6,91.4,73.6z" class="st18"/></g><g><linearGradient id="SVGID_19_" x1="33.339" x2="33.339" y1="29.202" y2="6.386" gradientTransform="matrix(1 0 0 -1 0 102)" gradientUnits="userSpaceOnUse"><stop offset="0" style="stop-color:#ccc;stop-opacity:.8"/><stop offset="1" style="stop-color:#999;stop-opacity:.4"/></linearGradient><path d="M52.7,95.6c-0.1,0-0.1,0-0.2,0l-38.7-22c-0.2-0.1-0.3-0.3-0.2-0.6c0.1-0.2,0.3-0.3,0.6-0.2c0,0,0,0,0.1,0 l38.7,22c0.2,0.1,0.3,0.4,0.2,0.6C53,95.6,52.8,95.6,52.7,95.6z" class="st19"/></g><g><linearGradient id="SVGID_20_" x1="72.067" x2="72.067" y1="74.18" y2="51.37" gradientTransform="matrix(1 0 0 -1 0 102)" gradientUnits="userSpaceOnUse"><stop offset="0" style="stop-color:#ccc;stop-opacity:.8"/><stop offset="1" style="stop-color:#999;stop-opacity:.4"/></linearGradient><path d="M52.7,50.6c-0.2,0-0.4-0.2-0.4-0.4c0-0.2,0.1-0.3,0.2-0.4l38.7-22c0.2-0.1,0.5-0.1,0.6,0.1 c0.1,0.2,0.1,0.5-0.1,0.6c0,0,0,0-0.1,0l-38.7,22C52.9,50.6,52.8,50.6,52.7,50.6z" class="st20"/></g><g><linearGradient id="SVGID_21_" x1="33.356" x2="33.356" y1="97.192" y2="73.34" gradientTransform="matrix(1 0 0 -1 0 102)" gradientUnits="userSpaceOnUse"><stop offset="0" style="stop-color:#ccc;stop-opacity:.8"/><stop offset="1" style="stop-color:#999;stop-opacity:.4"/></linearGradient><path d="M14,28.7c-0.1,0-0.3-0.1-0.4-0.2c-0.1-0.2-0.1-0.5,0.1-0.6c0,0,0,0,0,0l38.7-23c0.2-0.1,0.5-0.1,0.6,0.1 c0.1,0.2,0.1,0.5-0.1,0.6c0,0,0,0,0,0l-38.7,23C14.1,28.6,14.1,28.7,14,28.7z" class="st21"/></g><g><linearGradient id="SVGID_22_" x1="1171.855" x2="1171.855" y1="-2684.16" y2="-2638.35" gradientTransform="matrix(-1 0 0 1 1185.85 2711.99)" gradientUnits="userSpaceOnUse"><stop offset="0" style="stop-color:#ccc;stop-opacity:.8"/><stop offset="1" style="stop-color:#999;stop-opacity:.4"/></linearGradient><path d="M14,73.6c-0.2,0-0.4-0.2-0.4-0.4v-45c0-0.2,0.1-0.4,0.4-0.5c0.2,0,0.4,0.1,0.5,0.4c0,0,0,0.1,0,0.1v45 C14.4,73.4,14.2,73.6,14,73.6C14,73.6,14,73.6,14,73.6z" class="st22"/></g><g><linearGradient id="SVGID_23_" x1="91.41" x2="91.41" y1="28.36" y2="74.201" gradientTransform="matrix(1 0 0 -1 0 102)" gradientUnits="userSpaceOnUse"><stop offset="0" style="stop-color:#ccc;stop-opacity:.8"/><stop offset="1" style="stop-color:#999;stop-opacity:.4"/></linearGradient><path d="M91.4,73.6c-0.2,0-0.4-0.2-0.4-0.4v-45c0-0.2,0.2-0.4,0.4-0.4s0.4,0.2,0.4,0.4c0,0,0,0,0,0v45 C91.8,73.5,91.6,73.6,91.4,73.6z" class="st23"/></g><g><linearGradient id="SVGID_24_" x1="52.705" x2="52.705" y1="6.4" y2="52.24" gradientTransform="matrix(1 0 0 -1 0 102)" gradientUnits="userSpaceOnUse"><stop offset="0" style="stop-color:#ccc;stop-opacity:.8"/><stop offset="1" style="stop-color:#999;stop-opacity:.4"/></linearGradient><path d="M52.7,95.6c-0.2,0-0.4-0.2-0.4-0.4v-45c0-0.2,0.2-0.4,0.4-0.4c0.2,0,0.4,0.2,0.4,0.4c0,0,0,0,0,0v45 C53.1,95.4,52.9,95.6,52.7,95.6C52.7,95.6,52.7,95.6,52.7,95.6z" class="st24"/></g><g><linearGradient id="SVGID_25_" x1="1207.145" x2="1207.145" y1="-2703.36" y2="-2749.2" gradientTransform="matrix(-1 0 0 1 1259.8501 2753.99)" gradientUnits="userSpaceOnUse"><stop offset="0" style="stop-color:#ccc;stop-opacity:.8"/><stop offset="1" style="stop-color:#999;stop-opacity:.4"/></linearGradient><path d="M52.7,50.6c-0.2,0-0.4-0.2-0.4-0.4v-45c0-0.2,0.2-0.4,0.4-0.4c0.2,0,0.4,0.2,0.4,0.4c0,0,0,0,0,0v45 C53.1,50.4,52.9,50.6,52.7,50.6C52.7,50.6,52.7,50.6,52.7,50.6z" class="st25"/></g><g><linearGradient id="SVGID_26_" x1="29.634" x2="106.794" y1="31.065" y2="100.365" gradientTransform="matrix(1 0 0 -1 0 102)" gradientUnits="userSpaceOnUse"><stop offset="0" style="stop-color:gray"/><stop offset="1" style="stop-color:gray"/></linearGradient><circle cx="52.7" cy="50.2" r="29.3" class="st26"/></g><g><linearGradient id="SVGID_27_" x1="46.112" x2="57.822" y1="90.088" y2="101.948" gradientTransform="matrix(1 0 0 -1 0 102)" gradientUnits="userSpaceOnUse"><stop offset="0" style="stop-color:#ccc;stop-opacity:.8"/><stop offset="1" style="stop-color:#999;stop-opacity:.4"/></linearGradient><circle cx="52.7" cy="5.2" r="5.2" class="st27"/></g><g><linearGradient id="SVGID_28_" x1="7.412" x2="19.122" y1="67.078" y2="78.938" gradientTransform="matrix(1 0 0 -1 0 102)" gradientUnits="userSpaceOnUse"><stop offset="0" style="stop-color:#ccc;stop-opacity:.8"/><stop offset="1" style="stop-color:#999;stop-opacity:.4"/></linearGradient><circle cx="14" cy="28.2" r="5.2" class="st28"/></g><g><linearGradient id="SVGID_29_" x1="84.812" x2="96.522" y1="67.078" y2="78.938" gradientTransform="matrix(1 0 0 -1 0 102)" gradientUnits="userSpaceOnUse"><stop offset="0" style="stop-color:#ccc;stop-opacity:.8"/><stop offset="1" style="stop-color:#999;stop-opacity:.4"/></linearGradient><circle cx="91.4" cy="28.2" r="5.2" class="st29"/></g><g><linearGradient id="SVGID_30_" x1="46.109" x2="57.819" y1=".141" y2="11.991" gradientTransform="matrix(1 0 0 -1 0 102)" gradientUnits="userSpaceOnUse"><stop offset="0" style="stop-color:#ccc;stop-opacity:.8"/><stop offset="1" style="stop-color:#999;stop-opacity:.4"/></linearGradient><circle cx="52.7" cy="95.2" r="5.2" class="st30"/></g><g><linearGradient id="SVGID_31_" x1="7.412" x2="19.122" y1="22.098" y2="33.958" gradientTransform="matrix(1 0 0 -1 0 102)" gradientUnits="userSpaceOnUse"><stop offset="0" style="stop-color:#ccc;stop-opacity:.8"/><stop offset="1" style="stop-color:#999;stop-opacity:.4"/></linearGradient><circle cx="14" cy="73.2" r="5.2" class="st31"/></g><g><linearGradient id="SVGID_32_" x1="84.812" x2="96.522" y1="22.098" y2="33.958" gradientTransform="matrix(1 0 0 -1 0 102)" gradientUnits="userSpaceOnUse"><stop offset="0" style="stop-color:#ccc;stop-opacity:.8"/><stop offset="1" style="stop-color:#999;stop-opacity:.4"/></linearGradient><circle cx="91.4" cy="73.2" r="5.2" class="st32"/></g><g><linearGradient id="SVGID_33_" x1="72.065" x2="72.065" y1="73.34" y2="97.168" gradientTransform="matrix(1 0 0 -1 0 102)" gradientUnits="userSpaceOnUse"><stop offset="0" style="stop-color:#ccc;stop-opacity:.8"/><stop offset="1" style="stop-color:#999;stop-opacity:.4"/></linearGradient><path d="M91.4,28.7c-0.1,0-0.2,0-0.2-0.1l-38.7-23c-0.2-0.1-0.2-0.4-0.1-0.6c0.1-0.2,0.4-0.2,0.5-0.1l38.7,23 c0.2,0.1,0.3,0.4,0.1,0.6C91.7,28.6,91.6,28.7,91.4,28.7z" class="st33"/></g><g><linearGradient id="SVGID_34_" x1="33.361" x2="33.361" y1="74.18" y2="51.37" gradientTransform="matrix(1 0 0 -1 0 102)" gradientUnits="userSpaceOnUse"><stop offset="0" style="stop-color:#ccc;stop-opacity:.8"/><stop offset="1" style="stop-color:#999;stop-opacity:.4"/></linearGradient><path d="M52.7,50.6c-0.1,0-0.1,0-0.2-0.1l-38.7-22c-0.2-0.1-0.3-0.4-0.2-0.6c0.1-0.2,0.4-0.3,0.6-0.2c0,0,0,0,0,0 l38.7,22c0.2,0.1,0.3,0.4,0.2,0.6C53,50.5,52.9,50.6,52.7,50.6z" class="st34"/></g><g><linearGradient id="SVGID_35_" x1="72.057" x2="72.057" y1="6.399" y2="29.2" gradientTransform="matrix(1 0 0 -1 0 102)" gradientUnits="userSpaceOnUse"><stop offset="0" style="stop-color:#ccc;stop-opacity:.8"/><stop offset="1" style="stop-color:#999;stop-opacity:.4"/></linearGradient><path d="M52.7,95.6c-0.2,0-0.3-0.1-0.4-0.2c-0.1-0.2,0-0.5,0.2-0.6l38.7-22c0.2-0.1,0.5,0,0.6,0.2 c0.1,0.2,0.1,0.4-0.1,0.6c0,0,0,0,0,0l-38.7,22C52.8,95.6,52.8,95.6,52.7,95.6z" class="st35"/></g><g><linearGradient id="SVGID_36_" x1="33.346" x2="33.346" y1="52.203" y2="28.36" gradientTransform="matrix(1 0 0 -1 0 102)" gradientUnits="userSpaceOnUse"><stop offset="0" style="stop-color:#ccc;stop-opacity:.8"/><stop offset="1" style="stop-color:#999;stop-opacity:.4"/></linearGradient><path d="M14,73.6c-0.2,0-0.4-0.2-0.4-0.4c0-0.1,0.1-0.3,0.2-0.4l38.7-23c0.2-0.1,0.5-0.1,0.6,0.1c0,0,0,0,0,0 c0.1,0.2,0,0.5-0.2,0.6l-38.7,23C14.1,73.6,14.1,73.6,14,73.6z" class="st36"/></g><g><linearGradient id="SVGID_37_" x1="72.058" x2="72.058" y1="52.202" y2="28.36" gradientTransform="matrix(1 0 0 -1 0 102)" gradientUnits="userSpaceOnUse"><stop offset="0" style="stop-color:#ccc;stop-opacity:.8"/><stop offset="1" style="stop-color:#999;stop-opacity:.4"/></linearGradient><path d="M91.4,73.6c-0.1,0-0.2,0-0.2-0.1l-38.7-23c-0.2-0.1-0.3-0.4-0.1-0.6c0,0,0,0,0,0c0.1-0.2,0.4-0.3,0.6-0.1 c0,0,0,0,0,0l38.7,23c0.2,0.1,0.3,0.4,0.2,0.6c0,0,0,0,0,0C91.7,73.6,91.6,73.6,91.4,73.6z" class="st37"/></g><g><linearGradient id="SVGID_38_" x1="33.339" x2="33.339" y1="29.202" y2="6.386" gradientTransform="matrix(1 0 0 -1 0 102)" gradientUnits="userSpaceOnUse"><stop offset="0" style="stop-color:#ccc;stop-opacity:.8"/><stop offset="1" style="stop-color:#999;stop-opacity:.4"/></linearGradient><path d="M52.7,95.6c-0.1,0-0.1,0-0.2,0l-38.7-22c-0.2-0.1-0.3-0.3-0.2-0.6c0.1-0.2,0.3-0.3,0.6-0.2c0,0,0,0,0.1,0 l38.7,22c0.2,0.1,0.3,0.4,0.2,0.6C53,95.6,52.8,95.6,52.7,95.6z" class="st38"/></g><g><linearGradient id="SVGID_39_" x1="72.067" x2="72.067" y1="74.18" y2="51.37" gradientTransform="matrix(1 0 0 -1 0 102)" gradientUnits="userSpaceOnUse"><stop offset="0" style="stop-color:#ccc;stop-opacity:.8"/><stop offset="1" style="stop-color:#999;stop-opacity:.4"/></linearGradient><path d="M52.7,50.6c-0.2,0-0.4-0.2-0.4-0.4c0-0.2,0.1-0.3,0.2-0.4l38.7-22c0.2-0.1,0.5-0.1,0.6,0.1 c0.1,0.2,0.1,0.5-0.1,0.6c0,0,0,0-0.1,0l-38.7,22C52.9,50.6,52.8,50.6,52.7,50.6z" class="st39"/></g><g><linearGradient id="SVGID_40_" x1="33.356" x2="33.356" y1="97.192" y2="73.34" gradientTransform="matrix(1 0 0 -1 0 102)" gradientUnits="userSpaceOnUse"><stop offset="0" style="stop-color:#ccc;stop-opacity:.8"/><stop offset="1" style="stop-color:#999;stop-opacity:.4"/></linearGradient><path d="M14,28.7c-0.1,0-0.3-0.1-0.4-0.2c-0.1-0.2-0.1-0.5,0.1-0.6c0,0,0,0,0,0l38.7-23c0.2-0.1,0.5-0.1,0.6,0.1 c0.1,0.2,0.1,0.5-0.1,0.6c0,0,0,0,0,0l-38.7,23C14.1,28.6,14.1,28.7,14,28.7z" class="st40"/></g><g><linearGradient id="SVGID_41_" x1="1171.855" x2="1171.855" y1="-2684.16" y2="-2638.35" gradientTransform="matrix(-1 0 0 1 1185.85 2711.99)" gradientUnits="userSpaceOnUse"><stop offset="0" style="stop-color:#ccc;stop-opacity:.8"/><stop offset="1" style="stop-color:#999;stop-opacity:.4"/></linearGradient><path d="M14,73.6c-0.2,0-0.4-0.2-0.4-0.4v-45c0-0.2,0.1-0.4,0.4-0.5c0.2,0,0.4,0.1,0.5,0.4c0,0,0,0.1,0,0.1v45 C14.4,73.4,14.2,73.6,14,73.6C14,73.6,14,73.6,14,73.6z" class="st41"/></g><g><linearGradient id="SVGID_42_" x1="91.41" x2="91.41" y1="28.36" y2="74.201" gradientTransform="matrix(1 0 0 -1 0 102)" gradientUnits="userSpaceOnUse"><stop offset="0" style="stop-color:#ccc;stop-opacity:.8"/><stop offset="1" style="stop-color:#999;stop-opacity:.4"/></linearGradient><path d="M91.4,73.6c-0.2,0-0.4-0.2-0.4-0.4v-45c0-0.2,0.2-0.4,0.4-0.4s0.4,0.2,0.4,0.4c0,0,0,0,0,0v45 C91.8,73.5,91.6,73.6,91.4,73.6z" class="st42"/></g><g><linearGradient id="SVGID_43_" x1="52.705" x2="52.705" y1="6.4" y2="52.24" gradientTransform="matrix(1 0 0 -1 0 102)" gradientUnits="userSpaceOnUse"><stop offset="0" style="stop-color:#ccc;stop-opacity:.8"/><stop offset="1" style="stop-color:#999;stop-opacity:.4"/></linearGradient><path d="M52.7,95.6c-0.2,0-0.4-0.2-0.4-0.4v-45c0-0.2,0.2-0.4,0.4-0.4c0.2,0,0.4,0.2,0.4,0.4c0,0,0,0,0,0v45 C53.1,95.4,52.9,95.6,52.7,95.6C52.7,95.6,52.7,95.6,52.7,95.6z" class="st43"/></g><g><linearGradient id="SVGID_44_" x1="1207.145" x2="1207.145" y1="-2703.36" y2="-2749.2" gradientTransform="matrix(-1 0 0 1 1259.8501 2753.99)" gradientUnits="userSpaceOnUse"><stop offset="0" style="stop-color:#ccc;stop-opacity:.8"/><stop offset="1" style="stop-color:#999;stop-opacity:.4"/></linearGradient><path d="M52.7,50.6c-0.2,0-0.4-0.2-0.4-0.4v-45c0-0.2,0.2-0.4,0.4-0.4c0.2,0,0.4,0.2,0.4,0.4c0,0,0,0,0,0v45 C53.1,50.4,52.9,50.6,52.7,50.6C52.7,50.6,52.7,50.6,52.7,50.6z" class="st44"/></g><g><linearGradient id="SVGID_45_" x1="46.112" x2="57.822" y1="90.088" y2="101.948" gradientTransform="matrix(1 0 0 -1 0 102)" gradientUnits="userSpaceOnUse"><stop offset="0" style="stop-color:#ccc;stop-opacity:.8"/><stop offset="1" style="stop-color:#999;stop-opacity:.4"/></linearGradient><circle cx="52.7" cy="5.2" r="5.2" class="st45"/></g><g><linearGradient id="SVGID_46_" x1="7.412" x2="19.122" y1="67.078" y2="78.938" gradientTransform="matrix(1 0 0 -1 0 102)" gradientUnits="userSpaceOnUse"><stop offset="0" style="stop-color:#ccc;stop-opacity:.8"/><stop offset="1" style="stop-color:#999;stop-opacity:.4"/></linearGradient><circle cx="14" cy="28.2" r="5.2" class="st46"/></g><g><linearGradient id="SVGID_47_" x1="84.812" x2="96.522" y1="67.078" y2="78.938" gradientTransform="matrix(1 0 0 -1 0 102)" gradientUnits="userSpaceOnUse"><stop offset="0" style="stop-color:#ccc;stop-opacity:.8"/><stop offset="1" style="stop-color:#999;stop-opacity:.4"/></linearGradient><circle cx="91.4" cy="28.2" r="5.2" class="st47"/></g><g><linearGradient id="SVGID_48_" x1="46.109" x2="57.819" y1=".141" y2="11.991" gradientTransform="matrix(1 0 0 -1 0 102)" gradientUnits="userSpaceOnUse"><stop offset="0" style="stop-color:#ccc;stop-opacity:.8"/><stop offset="1" style="stop-color:#999;stop-opacity:.4"/></linearGradient><circle cx="52.7" cy="95.2" r="5.2" class="st48"/></g><g><linearGradient id="SVGID_49_" x1="7.412" x2="19.122" y1="22.098" y2="33.958" gradientTransform="matrix(1 0 0 -1 0 102)" gradientUnits="userSpaceOnUse"><stop offset="0" style="stop-color:#ccc;stop-opacity:.8"/><stop offset="1" style="stop-color:#999;stop-opacity:.4"/></linearGradient><circle cx="14" cy="73.2" r="5.2" class="st49"/></g><g><linearGradient id="SVGID_50_" x1="84.812" x2="96.522" y1="22.098" y2="33.958" gradientTransform="matrix(1 0 0 -1 0 102)" gradientUnits="userSpaceOnUse"><stop offset="0" style="stop-color:#ccc;stop-opacity:.8"/><stop offset="1" style="stop-color:#999;stop-opacity:.4"/></linearGradient><circle cx="91.4" cy="73.2" r="5.2" class="st50"/></g><g><linearGradient id="SVGID_51_" x1="72.065" x2="72.065" y1="73.34" y2="97.168" gradientTransform="matrix(1 0 0 -1 0 102)" gradientUnits="userSpaceOnUse"><stop offset="0" style="stop-color:#ccc;stop-opacity:.8"/><stop offset="1" style="stop-color:#999;stop-opacity:.4"/></linearGradient><path d="M91.4,28.7c-0.1,0-0.2,0-0.2-0.1l-38.7-23c-0.2-0.1-0.2-0.4-0.1-0.6c0.1-0.2,0.4-0.2,0.5-0.1l38.7,23 c0.2,0.1,0.3,0.4,0.1,0.6C91.7,28.6,91.6,28.7,91.4,28.7z" class="st51"/></g><g><linearGradient id="SVGID_52_" x1="33.361" x2="33.361" y1="74.18" y2="51.37" gradientTransform="matrix(1 0 0 -1 0 102)" gradientUnits="userSpaceOnUse"><stop offset="0" style="stop-color:#ccc;stop-opacity:.8"/><stop offset="1" style="stop-color:#999;stop-opacity:.4"/></linearGradient><path d="M52.7,50.6c-0.1,0-0.1,0-0.2-0.1l-38.7-22c-0.2-0.1-0.3-0.4-0.2-0.6c0.1-0.2,0.4-0.3,0.6-0.2c0,0,0,0,0,0 l38.7,22c0.2,0.1,0.3,0.4,0.2,0.6C53,50.5,52.9,50.6,52.7,50.6z" class="st52"/></g><g><linearGradient id="SVGID_53_" x1="72.057" x2="72.057" y1="6.399" y2="29.2" gradientTransform="matrix(1 0 0 -1 0 102)" gradientUnits="userSpaceOnUse"><stop offset="0" style="stop-color:#ccc;stop-opacity:.8"/><stop offset="1" style="stop-color:#999;stop-opacity:.4"/></linearGradient><path d="M52.7,95.6c-0.2,0-0.3-0.1-0.4-0.2c-0.1-0.2,0-0.5,0.2-0.6l38.7-22c0.2-0.1,0.5,0,0.6,0.2 c0.1,0.2,0.1,0.4-0.1,0.6c0,0,0,0,0,0l-38.7,22C52.8,95.6,52.8,95.6,52.7,95.6z" class="st53"/></g><g><linearGradient id="SVGID_54_" x1="33.346" x2="33.346" y1="52.203" y2="28.36" gradientTransform="matrix(1 0 0 -1 0 102)" gradientUnits="userSpaceOnUse"><stop offset="0" style="stop-color:#ccc;stop-opacity:.8"/><stop offset="1" style="stop-color:#999;stop-opacity:.4"/></linearGradient><path d="M14,73.6c-0.2,0-0.4-0.2-0.4-0.4c0-0.1,0.1-0.3,0.2-0.4l38.7-23c0.2-0.1,0.5-0.1,0.6,0.1c0,0,0,0,0,0 c0.1,0.2,0,0.5-0.2,0.6l-38.7,23C14.1,73.6,14.1,73.6,14,73.6z" class="st54"/></g><g><linearGradient id="SVGID_55_" x1="72.058" x2="72.058" y1="52.202" y2="28.36" gradientTransform="matrix(1 0 0 -1 0 102)" gradientUnits="userSpaceOnUse"><stop offset="0" style="stop-color:#ccc;stop-opacity:.8"/><stop offset="1" style="stop-color:#999;stop-opacity:.4"/></linearGradient><path d="M91.4,73.6c-0.1,0-0.2,0-0.2-0.1l-38.7-23c-0.2-0.1-0.3-0.4-0.1-0.6c0,0,0,0,0,0c0.1-0.2,0.4-0.3,0.6-0.1 c0,0,0,0,0,0l38.7,23c0.2,0.1,0.3,0.4,0.2,0.6c0,0,0,0,0,0C91.7,73.6,91.6,73.6,91.4,73.6z" class="st55"/></g><g><linearGradient id="SVGID_56_" x1="33.339" x2="33.339" y1="29.202" y2="6.386" gradientTransform="matrix(1 0 0 -1 0 102)" gradientUnits="userSpaceOnUse"><stop offset="0" style="stop-color:#ccc;stop-opacity:.8"/><stop offset="1" style="stop-color:#999;stop-opacity:.4"/></linearGradient><path d="M52.7,95.6c-0.1,0-0.1,0-0.2,0l-38.7-22c-0.2-0.1-0.3-0.3-0.2-0.6c0.1-0.2,0.3-0.3,0.6-0.2c0,0,0,0,0.1,0 l38.7,22c0.2,0.1,0.3,0.4,0.2,0.6C53,95.6,52.8,95.6,52.7,95.6z" class="st56"/></g><g><linearGradient id="SVGID_57_" x1="72.067" x2="72.067" y1="74.18" y2="51.37" gradientTransform="matrix(1 0 0 -1 0 102)" gradientUnits="userSpaceOnUse"><stop offset="0" style="stop-color:#ccc;stop-opacity:.8"/><stop offset="1" style="stop-color:#999;stop-opacity:.4"/></linearGradient><path d="M52.7,50.6c-0.2,0-0.4-0.2-0.4-0.4c0-0.2,0.1-0.3,0.2-0.4l38.7-22c0.2-0.1,0.5-0.1,0.6,0.1 c0.1,0.2,0.1,0.5-0.1,0.6c0,0,0,0-0.1,0l-38.7,22C52.9,50.6,52.8,50.6,52.7,50.6z" class="st57"/></g><g><linearGradient id="SVGID_58_" x1="33.356" x2="33.356" y1="97.192" y2="73.34" gradientTransform="matrix(1 0 0 -1 0 102)" gradientUnits="userSpaceOnUse"><stop offset="0" style="stop-color:#ccc;stop-opacity:.8"/><stop offset="1" style="stop-color:#999;stop-opacity:.4"/></linearGradient><path d="M14,28.7c-0.1,0-0.3-0.1-0.4-0.2c-0.1-0.2-0.1-0.5,0.1-0.6c0,0,0,0,0,0l38.7-23c0.2-0.1,0.5-0.1,0.6,0.1 c0.1,0.2,0.1,0.5-0.1,0.6c0,0,0,0,0,0l-38.7,23C14.1,28.6,14.1,28.7,14,28.7z" class="st58"/></g><g><linearGradient id="SVGID_59_" x1="1171.855" x2="1171.855" y1="-2684.16" y2="-2638.35" gradientTransform="matrix(-1 0 0 1 1185.85 2711.99)" gradientUnits="userSpaceOnUse"><stop offset="0" style="stop-color:#ccc;stop-opacity:.8"/><stop offset="1" style="stop-color:#999;stop-opacity:.4"/></linearGradient><path d="M14,73.6c-0.2,0-0.4-0.2-0.4-0.4v-45c0-0.2,0.1-0.4,0.4-0.5c0.2,0,0.4,0.1,0.5,0.4c0,0,0,0.1,0,0.1v45 C14.4,73.4,14.2,73.6,14,73.6C14,73.6,14,73.6,14,73.6z" class="st59"/></g><g><linearGradient id="SVGID_60_" x1="91.41" x2="91.41" y1="28.36" y2="74.201" gradientTransform="matrix(1 0 0 -1 0 102)" gradientUnits="userSpaceOnUse"><stop offset="0" style="stop-color:#ccc;stop-opacity:.8"/><stop offset="1" style="stop-color:#999;stop-opacity:.4"/></linearGradient><path d="M91.4,73.6c-0.2,0-0.4-0.2-0.4-0.4v-45c0-0.2,0.2-0.4,0.4-0.4s0.4,0.2,0.4,0.4c0,0,0,0,0,0v45 C91.8,73.5,91.6,73.6,91.4,73.6z" class="st60"/></g><g><linearGradient id="SVGID_61_" x1="52.705" x2="52.705" y1="6.4" y2="52.24" gradientTransform="matrix(1 0 0 -1 0 102)" gradientUnits="userSpaceOnUse"><stop offset="0" style="stop-color:#ccc;stop-opacity:.8"/><stop offset="1" style="stop-color:#999;stop-opacity:.4"/></linearGradient><path d="M52.7,95.6c-0.2,0-0.4-0.2-0.4-0.4v-45c0-0.2,0.2-0.4,0.4-0.4c0.2,0,0.4,0.2,0.4,0.4c0,0,0,0,0,0v45 C53.1,95.4,52.9,95.6,52.7,95.6C52.7,95.6,52.7,95.6,52.7,95.6z" class="st61"/></g><g><linearGradient id="SVGID_62_" x1="1207.145" x2="1207.145" y1="-2703.36" y2="-2749.2" gradientTransform="matrix(-1 0 0 1 1259.8501 2753.99)" gradientUnits="userSpaceOnUse"><stop offset="0" style="stop-color:#ccc;stop-opacity:.8"/><stop offset="1" style="stop-color:#999;stop-opacity:.4"/></linearGradient><path d="M52.7,50.6c-0.2,0-0.4-0.2-0.4-0.4v-45c0-0.2,0.2-0.4,0.4-0.4c0.2,0,0.4,0.2,0.4,0.4c0,0,0,0,0,0v45 C53.1,50.4,52.9,50.6,52.7,50.6C52.7,50.6,52.7,50.6,52.7,50.6z" class="st62"/></g><g><linearGradient id="SVGID_63_" x1="46.112" x2="57.822" y1="90.088" y2="101.948" gradientTransform="matrix(1 0 0 -1 0 102)" gradientUnits="userSpaceOnUse"><stop offset="0" style="stop-color:#ccc;stop-opacity:.8"/><stop offset="1" style="stop-color:#999;stop-opacity:.4"/></linearGradient><circle cx="52.7" cy="5.2" r="5.2" class="st63"/></g><g><linearGradient id="SVGID_64_" x1="7.412" x2="19.122" y1="67.078" y2="78.938" gradientTransform="matrix(1 0 0 -1 0 102)" gradientUnits="userSpaceOnUse"><stop offset="0" style="stop-color:#ccc;stop-opacity:.8"/><stop offset="1" style="stop-color:#999;stop-opacity:.4"/></linearGradient><circle cx="14" cy="28.2" r="5.2" class="st64"/></g><g><linearGradient id="SVGID_65_" x1="84.812" x2="96.522" y1="67.078" y2="78.938" gradientTransform="matrix(1 0 0 -1 0 102)" gradientUnits="userSpaceOnUse"><stop offset="0" style="stop-color:#ccc;stop-opacity:.8"/><stop offset="1" style="stop-color:#999;stop-opacity:.4"/></linearGradient><circle cx="91.4" cy="28.2" r="5.2" class="st65"/></g><g><linearGradient id="SVGID_66_" x1="46.109" x2="57.819" y1=".141" y2="11.991" gradientTransform="matrix(1 0 0 -1 0 102)" gradientUnits="userSpaceOnUse"><stop offset="0" style="stop-color:#ccc;stop-opacity:.8"/><stop offset="1" style="stop-color:#999;stop-opacity:.4"/></linearGradient><circle cx="52.7" cy="95.2" r="5.2" class="st66"/></g><g><linearGradient id="SVGID_67_" x1="7.412" x2="19.122" y1="22.098" y2="33.958" gradientTransform="matrix(1 0 0 -1 0 102)" gradientUnits="userSpaceOnUse"><stop offset="0" style="stop-color:#ccc;stop-opacity:.8"/><stop offset="1" style="stop-color:#999;stop-opacity:.4"/></linearGradient><circle cx="14" cy="73.2" r="5.2" class="st67"/></g><g><linearGradient id="SVGID_68_" x1="84.812" x2="96.522" y1="22.098" y2="33.958" gradientTransform="matrix(1 0 0 -1 0 102)" gradientUnits="userSpaceOnUse"><stop offset="0" style="stop-color:#ccc;stop-opacity:.8"/><stop offset="1" style="stop-color:#999;stop-opacity:.4"/></linearGradient><circle cx="91.4" cy="73.2" r="5.2" class="st68"/></g><g><linearGradient id="SVGID_69_" x1="72.065" x2="72.065" y1="73.34" y2="97.168" gradientTransform="matrix(1 0 0 -1 0 102)" gradientUnits="userSpaceOnUse"><stop offset="0" style="stop-color:#ccc;stop-opacity:.8"/><stop offset="1" style="stop-color:#999;stop-opacity:.4"/></linearGradient><path d="M91.4,28.7c-0.1,0-0.2,0-0.2-0.1l-38.7-23c-0.2-0.1-0.2-0.4-0.1-0.6c0.1-0.2,0.4-0.2,0.5-0.1l38.7,23 c0.2,0.1,0.3,0.4,0.1,0.6C91.7,28.6,91.6,28.7,91.4,28.7z" class="st69"/></g><g><linearGradient id="SVGID_70_" x1="33.361" x2="33.361" y1="74.18" y2="51.37" gradientTransform="matrix(1 0 0 -1 0 102)" gradientUnits="userSpaceOnUse"><stop offset="0" style="stop-color:#ccc;stop-opacity:.8"/><stop offset="1" style="stop-color:#999;stop-opacity:.4"/></linearGradient><path d="M52.7,50.6c-0.1,0-0.1,0-0.2-0.1l-38.7-22c-0.2-0.1-0.3-0.4-0.2-0.6c0.1-0.2,0.4-0.3,0.6-0.2c0,0,0,0,0,0 l38.7,22c0.2,0.1,0.3,0.4,0.2,0.6C53,50.5,52.9,50.6,52.7,50.6z" class="st70"/></g><g><linearGradient id="SVGID_71_" x1="72.057" x2="72.057" y1="6.399" y2="29.2" gradientTransform="matrix(1 0 0 -1 0 102)" gradientUnits="userSpaceOnUse"><stop offset="0" style="stop-color:#ccc;stop-opacity:.8"/><stop offset="1" style="stop-color:#999;stop-opacity:.4"/></linearGradient><path d="M52.7,95.6c-0.2,0-0.3-0.1-0.4-0.2c-0.1-0.2,0-0.5,0.2-0.6l38.7-22c0.2-0.1,0.5,0,0.6,0.2 c0.1,0.2,0.1,0.4-0.1,0.6c0,0,0,0,0,0l-38.7,22C52.8,95.6,52.8,95.6,52.7,95.6z" class="st71"/></g><g><linearGradient id="SVGID_72_" x1="33.346" x2="33.346" y1="52.203" y2="28.36" gradientTransform="matrix(1 0 0 -1 0 102)" gradientUnits="userSpaceOnUse"><stop offset="0" style="stop-color:#ccc;stop-opacity:.8"/><stop offset="1" style="stop-color:#999;stop-opacity:.4"/></linearGradient><path d="M14,73.6c-0.2,0-0.4-0.2-0.4-0.4c0-0.1,0.1-0.3,0.2-0.4l38.7-23c0.2-0.1,0.5-0.1,0.6,0.1c0,0,0,0,0,0 c0.1,0.2,0,0.5-0.2,0.6l-38.7,23C14.1,73.6,14.1,73.6,14,73.6z" class="st72"/></g><g><linearGradient id="SVGID_73_" x1="72.058" x2="72.058" y1="52.202" y2="28.36" gradientTransform="matrix(1 0 0 -1 0 102)" gradientUnits="userSpaceOnUse"><stop offset="0" style="stop-color:#ccc;stop-opacity:.8"/><stop offset="1" style="stop-color:#999;stop-opacity:.4"/></linearGradient><path d="M91.4,73.6c-0.1,0-0.2,0-0.2-0.1l-38.7-23c-0.2-0.1-0.3-0.4-0.1-0.6c0,0,0,0,0,0c0.1-0.2,0.4-0.3,0.6-0.1 c0,0,0,0,0,0l38.7,23c0.2,0.1,0.3,0.4,0.2,0.6c0,0,0,0,0,0C91.7,73.6,91.6,73.6,91.4,73.6z" class="st73"/></g><g><linearGradient id="SVGID_74_" x1="33.339" x2="33.339" y1="29.202" y2="6.386" gradientTransform="matrix(1 0 0 -1 0 102)" gradientUnits="userSpaceOnUse"><stop offset="0" style="stop-color:#ccc;stop-opacity:.8"/><stop offset="1" style="stop-color:#999;stop-opacity:.4"/></linearGradient><path d="M52.7,95.6c-0.1,0-0.1,0-0.2,0l-38.7-22c-0.2-0.1-0.3-0.3-0.2-0.6c0.1-0.2,0.3-0.3,0.6-0.2c0,0,0,0,0.1,0 l38.7,22c0.2,0.1,0.3,0.4,0.2,0.6C53,95.6,52.8,95.6,52.7,95.6z" class="st74"/></g></g><circle cx="52.7" cy="49.8" r="3.1" class="st75"/><polygon points="57.5 41.5 58 14 82 28.6" class="st77"/><circle cx="90.3" cy="31" r="4.8" class="st76"/><line x1="30.5" x2="50.5" y1="63.3" y2="51.8" class="st77"/><g class="ani-1"><polyline points="22.1 58.5 37.2 49.5 .1 27.8 0 71.7 22.1 58.5" class="st76"/><polyline points="8.4 60.6 36 45 19.8 35.3" class="st77"/></g></g></g></svg>