<svg xmlns="http://www.w3.org/2000/svg" xmlns:xlink="http://www.w3.org/1999/xlink" style="enable-background:new 0 0 109.5 91.4" id="图层_1" x="0" y="0" version="1.1" viewBox="0 0 109.5 91.4" xml:space="preserve"><style type="text/css">.st0,.st1{opacity:.3}.st1{fill:url(#SVGID_1_);enable-background:new}.st2{fill:url(#SVGID_2_)}.st2,.st3,.st4,.st5,.st6{opacity:.5;enable-background:new}.st3{fill:url(#SVGID_3_)}.st4{fill:url(#SVGID_4_)}.st5{fill:url(#SVGID_5_)}.st6{fill:url(#SVGID_6_)}.st7{fill:url(#SVGID_7_)}.st8{fill:none;stroke:#00af92;stroke-miterlimit:10}.st9{fill:url(#SVGID_8_)}.st10{fill:url(#SVGID_9_)}.st11{fill:none;stroke:#00af92;stroke-width:.75;stroke-linecap:round}.st11,.st12{stroke-miterlimit:10}.st12,.st13,.st14{fill:none;stroke:#00af92;stroke-width:.75}.st13{opacity:.15;stroke-miterlimit:10;enable-background:new}.st14{stroke-linecap:round;stroke-linejoin:round}.st15{opacity:.15;enable-background:new}.st15,.st16{fill:#00af92}</style><g class="st0"><g><linearGradient id="SVGID_1_" x1="84.079" x2="154.849" y1="10.679" y2="-76.831" gradientTransform="matrix(1 0 0 -1 0 94)" gradientUnits="userSpaceOnUse"><stop style="stop-color:gray" offset="0"/><stop style="stop-color:gray" offset="1"/></linearGradient><circle cx="55" cy="47.4" r="44" class="st1"/></g><g><linearGradient id="SVGID_2_" x1="505.89" x2="430.37" y1="-348.368" y2="-351.878" gradientTransform="matrix(1 0 0 -1 -418.31 -298.34)" gradientUnits="userSpaceOnUse"><stop style="stop-color:#ccc" offset="0"/><stop style="stop-color:#999;stop-opacity:.8" offset="1"/></linearGradient><path d="M55,42.8c-11.1,0-20.2-4.1-20.2-9.2v28.4H35c1,4.6,9.6,8.3,20.1,8.3s19.1-3.6,20.1-8.3h0.1V33.7 C75.2,38.7,66.2,42.8,55,42.8z" class="st2"/></g><g><linearGradient id="SVGID_3_" x1="55.03" x2="55.03" y1="70.57" y2="20.36" gradientTransform="matrix(1 0 0 -1 0 94)" gradientUnits="userSpaceOnUse"><stop style="stop-color:gray;stop-opacity:.8" offset="0"/><stop style="stop-color:#666" offset="1"/></linearGradient><ellipse cx="55" cy="33.6" class="st3" rx="20.2" ry="9.2"/></g><g><linearGradient id="SVGID_4_" x1="55.03" x2="55.03" y1="61.39" y2="11.19" gradientTransform="matrix(1 0 0 -1 0 94)" gradientUnits="userSpaceOnUse"><stop style="stop-color:gray;stop-opacity:.8" offset="0"/><stop style="stop-color:#333" offset="1"/></linearGradient><ellipse cx="55" cy="42.8" class="st4" rx="20.2" ry="9.2"/></g><g><linearGradient id="SVGID_5_" x1="55.03" x2="55.03" y1="52.22" y2="2.02" gradientTransform="matrix(1 0 0 -1 0 94)" gradientUnits="userSpaceOnUse"><stop style="stop-color:gray;stop-opacity:.8" offset="0"/><stop style="stop-color:#333" offset="1"/></linearGradient><ellipse cx="55" cy="52" class="st5" rx="20.2" ry="9.2"/></g><g><linearGradient id="SVGID_6_" x1="55.03" x2="55.03" y1="43.05" y2="-7.15" gradientTransform="matrix(1 0 0 -1 0 94)" gradientUnits="userSpaceOnUse"><stop style="stop-color:gray;stop-opacity:.5" offset="0"/><stop style="stop-color:#333" offset="1"/></linearGradient><ellipse cx="55" cy="61.2" class="st6" rx="20.2" ry="9.2"/></g><g><linearGradient id="SVGID_7_" x1="439.761" x2="464.011" y1="-360.824" y2="-280.664" gradientTransform="matrix(1 0 0 -1 -418.31 -298.34)" gradientUnits="userSpaceOnUse"><stop style="stop-color:#ccc;stop-opacity:.8" offset="0"/><stop style="stop-color:#999;stop-opacity:.4" offset="1"/></linearGradient><path d="M18.4,47.4c0-19,14.5-34.8,33.4-36.5c1.9-0.2,3.3-1.8,3.3-3.6l0,0c0-2-1.6-3.7-3.7-3.7c-0.1,0-0.2,0-0.3,0 C26.8,5.7,9,27.1,11.1,51.3c0.5,5,1.8,10,3.9,14.6c0.9,1.8,3.1,2.6,4.9,1.8c0.1,0,0.2-0.1,0.3-0.1l0,0c1.6-1,2.3-3,1.5-4.7 C19.5,58,18.3,52.7,18.4,47.4z" class="st7"/></g><path d="M117.4,49.7" class="st8"/><g><linearGradient id="SVGID_8_" x1="473.35" x2="517.392" y1="-334.099" y2="-334.099" gradientTransform="matrix(1 0 0 -1 -418.31 -298.34)" gradientUnits="userSpaceOnUse"><stop style="stop-color:#ccc;stop-opacity:.8" offset="0"/><stop style="stop-color:#999;stop-opacity:.4" offset="1"/></linearGradient><path d="M55,7.2L55,7.2c0,1.9,1.4,3.5,3.3,3.6c20.2,1.8,35.1,19.7,33.2,39.9c-0.4,4.2-1.5,8.3-3.2,12.1 c-0.8,1.7-0.2,3.8,1.5,4.7l0,0c1.8,1,4,0.4,5-1.4C94.9,66,95,66,95,65.9c10.2-22.1,0.6-48.2-21.4-58.4C69,5.3,64,4,59,3.5 c-2-0.2-3.8,1.3-3.9,3.3C55,7,55,7.1,55,7.2z" class="st9"/></g><g><linearGradient id="SVGID_9_" x1="502.44" x2="427.76" y1="-369.339" y2="-383.379" gradientTransform="matrix(1 0 0 -1 -418.31 -298.34)" gradientUnits="userSpaceOnUse"><stop style="stop-color:#ccc;stop-opacity:.8" offset="0"/><stop style="stop-color:#999;stop-opacity:.4" offset="1"/></linearGradient><path d="M55,84.1c-11.9,0-23.1-5.8-30-15.5c-1.1-1.6-3.2-2-4.8-1.1l0,0c-1.8,1-2.4,3.3-1.3,5 c0.1,0.1,0.1,0.2,0.2,0.3c14,19.9,41.5,24.6,61.3,10.6c4.1-2.9,7.7-6.5,10.6-10.6c1.2-1.7,0.8-3.9-0.9-5.1 c-0.1-0.1-0.2-0.1-0.3-0.2l0,0c-1.6-1-3.7-0.5-4.8,1.1C78.1,78.3,67,84.1,55,84.1z" class="st10"/></g></g><path d="M31.9,43.7c-0.4,3.8,4.4,7.6,11.5,9.8" class="st11"/><path d="M31.9,39.1c0.1,3.6,4.9,7.2,11.7,9.2" class="st11"/><line x1="31.9" x2="31.9" y1="39.5" y2="44.8" class="st11"/><line x1="43.6" x2="43.6" y1="48.3" y2="53.4" class="st11"/><ellipse cx="58.3" cy="28.3" class="st12" rx="20.2" ry="9.2"/><ellipse cx="58.6" cy="28.3" class="st13" rx="14.3" ry="6.5"/><path d="M38.1,57.7c0,5.1,9,9.2,20.2,9.2s20.2-4.2,20.2-9.2" class="st12"/><path d="M64.9,42.2c7.9-1.2,13.6-4.6,13.6-8.7" class="st11"/><path d="M81.7,4.5c23.9,14.5,31.4,45.6,17,69.4c-0.1,0.2-0.2,0.3-0.3,0.5" class="st14"/><path d="M109.1,51.4c-0.3,6.8-2,13.4-4.9,19.5" class="st14"/><path d="M12.6,76.5C7,68,4,58.1,4,47.9" class="st14"/><path d="M20.9,85.1c-2.1-1.7-4.1-3.6-5.8-5.6" class="st14"/><line x1="78.5" x2="78.5" y1="28.8" y2="57.9" class="st11"/><line x1="76.1" x2="76.1" y1="32.8" y2="37.4" class="st11"/><line x1="73.5" x2="73.5" y1="34.3" y2="39" class="st11"/><line x1="70.7" x2="70.7" y1="35.6" y2="40.3" class="st11"/><line x1="67.7" x2="67.7" y1="36.5" y2="41.2" class="st11"/><line x1="64.6" x2="64.6" y1="37.4" y2="42.1" class="st11"/><path d="M31.8,43.8v-4.2v-0.5c0.1,3.6,4.9,7.2,11.7,9.2l0,0v5.1l-0.1,0.1C36.2,51.3,31.4,47.5,31.8,43.8L31.8,43.8z" class="st15"/><path d="M58.3,73.1" class="st11"/><path d="M78.5,61.5" class="st11"/><line x1="38.1" x2="38.1" y1="28.3" y2="46.1" class="st11"/><line x1="38.1" x2="38.1" y1="51.4" y2="58.7" class="st11"/><circle cx="4" cy="47.9" r="4" class="st15"/><circle cx="91.3" cy="64.7" r="9.8" class="st15"/><circle cx="91.7" cy="64.7" r="6" class="st15"/><circle cx="51.3" cy="7.3" r="7.3" class="st15"/><circle cx="51.3" cy="7.3" r="3.8" class="st15"/><circle cx="91.7" cy="64.7" r="3.5" class="st16"/><polygon points="46.9 52.2 45.3 51.9 45.3 50.2 46.9 50.5" class="st16"/><polygon points="49.3 52.5 47.7 52.3 47.7 50.6 49.3 50.8" class="st16"/><polyline points="50.4 50.9 52 51 52 52.7 50.4 52.6" class="st16"/><path d="M40.6,84.7c-6.2-2.7-11.6-7-15.5-12.6c-1.2-1.7-3.5-2-5.1-0.9s-2,3.5-0.9,5.1c1.4,1.9,2.9,3.6,4.7,5.1" class="st14"/></svg>