<svg xmlns="http://www.w3.org/2000/svg" xmlns:xlink="http://www.w3.org/1999/xlink" id="图层_1" x="0" y="0" version="1.1" viewBox="0 0 79.3 94" xml:space="preserve" style="enable-background:new 0 0 79.3 94"><style type="text/css">.st0{fill:url(#SVGID_1_)}.st1{fill:url(#SVGID_2_)}.st2{fill:url(#SVGID_3_)}.st3{fill:url(#SVGID_4_)}.st4{fill:url(#SVGID_5_)}.st5{fill:url(#SVGID_6_)}.st6{opacity:.35}.st7{fill:url(#SVGID_7_)}.st8{opacity:.92}.st9{fill:url(#SVGID_8_)}.st10{fill:url(#SVGID_9_)}.st11{fill:url(#SVGID_10_)}.st12{fill:url(#SVGID_11_)}.st13{fill:url(#SVGID_12_)}.st14{fill:url(#SVGID_13_)}.st15{fill:url(#SVGID_14_)}.st16{fill:url(#SVGID_15_)}.st17{fill:url(#SVGID_16_)}.st18{fill:url(#SVGID_17_)}.st19{fill:none;stroke:#00af92;stroke-width:.75;stroke-linecap:round;stroke-linejoin:round}.st20{opacity:.15;fill:#00af92;enable-background:new}.st21,.st22{fill:#00af92;stroke:#00af92;stroke-width:.75;stroke-linecap:round;stroke-linejoin:round}.st22{opacity:.15;fill:none;enable-background:new}</style><g id="图层_2_1_"><g id="Diagram"><g><linearGradient id="SVGID_1_" x1="6242.714" x2="6240.394" y1="94.319" y2="82.119" gradientTransform="matrix(-1 0 0 -1 6256.7002 96)" gradientUnits="userSpaceOnUse"><stop offset="0" style="stop-color:#fff"/><stop offset="1" style="stop-color:#fff"/></linearGradient><polygon points="20.2 13.2 10.2 13.2 20.2 3.2" class="st0"/></g><linearGradient id="SVGID_2_" x1="43.42" x2="56.49" y1="58.965" y2="58.965" gradientTransform="matrix(1 0 0 -1 0 96)" gradientUnits="userSpaceOnUse"><stop offset="0" style="stop-color:#ccc;stop-opacity:.8"/><stop offset="1" style="stop-color:#999;stop-opacity:.4"/></linearGradient><path d="M56.2,37.4H43.7c-0.2,0-0.3-0.2-0.3-0.4c0-0.2,0.1-0.3,0.3-0.3h12.4c0.2,0,0.3,0.2,0.3,0.4 C56.4,37.2,56.3,37.4,56.2,37.4z" class="st1"/><linearGradient id="SVGID_3_" x1="20.07" x2="40.91" y1="58.965" y2="58.965" gradientTransform="matrix(1 0 0 -1 0 96)" gradientUnits="userSpaceOnUse"><stop offset="0" style="stop-color:#ccc;stop-opacity:.8"/><stop offset="1" style="stop-color:#999;stop-opacity:.4"/></linearGradient><path d="M40.6,37.4H20.4c-0.2,0-0.3-0.2-0.3-0.4c0-0.2,0.1-0.3,0.3-0.3h20.2c0.2,0,0.3,0.2,0.3,0.4 C40.9,37.2,40.8,37.4,40.6,37.4z" class="st2"/><linearGradient id="SVGID_4_" x1="20.06" x2="47.92" y1="53.63" y2="53.63" gradientTransform="matrix(1 0 0 -1 0 96)" gradientUnits="userSpaceOnUse"><stop offset="0" style="stop-color:#ccc;stop-opacity:.8"/><stop offset="1" style="stop-color:#999;stop-opacity:.4"/></linearGradient><path d="M47.6,42.7H20.4c-0.2,0-0.4-0.2-0.4-0.4s0.2-0.4,0.4-0.4h27.2c0.2,0,0.4,0.2,0.4,0.4S47.8,42.7,47.6,42.7z" class="st3"/><linearGradient id="SVGID_5_" x1="35.64" x2="56.5" y1="34.055" y2="34.055" gradientTransform="matrix(1 0 0 -1 0 96)" gradientUnits="userSpaceOnUse"><stop offset="0" style="stop-color:#ccc;stop-opacity:.8"/><stop offset="1" style="stop-color:#999;stop-opacity:.4"/></linearGradient><path d="M56.2,62.3H35.9c-0.2,0-0.3-0.2-0.3-0.4c0-0.2,0.1-0.3,0.3-0.3h20.2c0.2,0,0.3,0.2,0.3,0.4 C56.4,62.2,56.3,62.3,56.2,62.3z" class="st4"/><linearGradient id="SVGID_6_" x1="43.409" x2="56.481" y1="28.715" y2="28.715" gradientTransform="matrix(1 0 0 -1 0 96)" gradientUnits="userSpaceOnUse"><stop offset="0" style="stop-color:#ccc;stop-opacity:.8"/><stop offset="1" style="stop-color:#999;stop-opacity:.4"/></linearGradient><path d="M56.2,67.6H43.7c-0.2,0-0.3-0.2-0.3-0.4c0-0.2,0.1-0.3,0.3-0.3c0,0,0,0,0,0h12.4c0.2,0,0.3,0.2,0.3,0.3 c0,0,0,0,0,0C56.5,67.5,56.4,67.6,56.2,67.6z" class="st5"/><g class="st6"><g><linearGradient id="SVGID_7_" x1="6241.189" x2="6238.869" y1="94.439" y2="82.239" gradientTransform="matrix(-1 0 0 -1 6256.7002 96)" gradientUnits="userSpaceOnUse"><stop offset="0" style="stop-color:#fff"/><stop offset="1" style="stop-color:#fff"/></linearGradient><polygon points="21.7 13 11.8 13 21.7 3.1" class="st7"/></g><g class="st8"><g><linearGradient id="SVGID_8_" x1="30.336" x2="49.386" y1="5.65" y2="71.06" gradientTransform="matrix(1 0 0 -1 0 96)" gradientUnits="userSpaceOnUse"><stop offset="0" style="stop-color:#ccc;stop-opacity:.8"/><stop offset="1" style="stop-color:#999;stop-opacity:.4"/></linearGradient><path d="M72.8,82.4H6.5c-0.9,0-1.7-0.7-1.7-1.6c0,0,0,0,0,0V35.9l34.8,24.9l34.8-24.9v44.8 C74.5,81.6,73.7,82.4,72.8,82.4C72.8,82.4,72.8,82.4,72.8,82.4z" class="st9"/></g><g><linearGradient id="SVGID_9_" x1="41.491" x2="30.411" y1="43.719" y2="141.079" gradientTransform="matrix(1 0 0 -1 0 96)" gradientUnits="userSpaceOnUse"><stop offset="0" style="stop-color:#ccc;stop-opacity:.8"/><stop offset="1" style="stop-color:#999;stop-opacity:.4"/></linearGradient><polygon points="4.8 35.9 39.6 60.8 74.4 35.9 39.6 11.1" class="st10"/></g></g><g><linearGradient id="SVGID_10_" x1="29.375" x2="53.526" y1="59.93" y2="98" gradientTransform="matrix(1 0 0 -1 0 96)" gradientUnits="userSpaceOnUse"><stop offset="0" style="stop-color:#ccc;stop-opacity:.8"/><stop offset="1" style="stop-color:#999;stop-opacity:.4"/></linearGradient><path d="M21.7,3.1h41.1c2.8,0,5,2.2,5,5c0,0,0,0,0,0v18.1H16.8c-2.8,0-5-2.2-5-5V13" class="st11"/></g><g><linearGradient id="SVGID_11_" x1="23.808" x2="67.147" y1="39.147" y2="86.017" gradientTransform="matrix(1 0 0 -1 0 96)" gradientUnits="userSpaceOnUse"><stop offset="0" style="stop-color:#ccc;stop-opacity:.8"/><stop offset="1" style="stop-color:#999;stop-opacity:.4"/></linearGradient><path d="M11.8,28h51c2.8,0,5,2.2,5,5v18.1l0,0h-51c-2.8,0-5-2.2-5-5V28L11.8,28z" class="st12"/></g><g><linearGradient id="SVGID_12_" x1="29.235" x2="90.535" y1="22.333" y2="75.823" gradientTransform="matrix(1 0 0 -1 0 96)" gradientUnits="userSpaceOnUse"><stop offset="0" style="stop-color:#ccc;stop-opacity:.8"/><stop offset="1" style="stop-color:#999;stop-opacity:.4"/></linearGradient><path d="M11.8,52.9h51c2.8,0,5,2.2,5,5v18.2l0,0h-51c-2.8,0-5-2.2-5-5V52.9L11.8,52.9z" class="st13"/></g><linearGradient id="SVGID_13_" x1="44.945" x2="58.015" y1="59.085" y2="59.085" gradientTransform="matrix(1 0 0 -1 0 96)" gradientUnits="userSpaceOnUse"><stop offset="0" style="stop-color:#ccc;stop-opacity:.8"/><stop offset="1" style="stop-color:#999;stop-opacity:.4"/></linearGradient><path d="M57.7,37.3H45.2c-0.2,0-0.3-0.2-0.3-0.4c0-0.2,0.1-0.3,0.3-0.3h12.4c0.2,0,0.3,0.2,0.3,0.4 C58,37.1,57.8,37.2,57.7,37.3z" class="st14"/><linearGradient id="SVGID_14_" x1="21.595" x2="42.435" y1="59.085" y2="59.085" gradientTransform="matrix(1 0 0 -1 0 96)" gradientUnits="userSpaceOnUse"><stop offset="0" style="stop-color:#ccc;stop-opacity:.8"/><stop offset="1" style="stop-color:#999;stop-opacity:.4"/></linearGradient><path d="M42.1,37.3H21.9c-0.2,0-0.3-0.2-0.3-0.4c0-0.2,0.1-0.3,0.3-0.3h20.2c0.2,0,0.3,0.2,0.3,0.4 C42.4,37.1,42.3,37.2,42.1,37.3z" class="st15"/><linearGradient id="SVGID_15_" x1="21.585" x2="49.445" y1="53.75" y2="53.75" gradientTransform="matrix(1 0 0 -1 0 96)" gradientUnits="userSpaceOnUse"><stop offset="0" style="stop-color:#ccc;stop-opacity:.8"/><stop offset="1" style="stop-color:#999;stop-opacity:.4"/></linearGradient><path d="M49.1,42.6H21.9c-0.2,0-0.4-0.2-0.4-0.4s0.2-0.4,0.4-0.4h27.2c0.2,0,0.4,0.2,0.4,0.4S49.3,42.6,49.1,42.6z" class="st16"/><linearGradient id="SVGID_16_" x1="37.165" x2="58.025" y1="34.175" y2="34.175" gradientTransform="matrix(1 0 0 -1 0 96)" gradientUnits="userSpaceOnUse"><stop offset="0" style="stop-color:#ccc;stop-opacity:.8"/><stop offset="1" style="stop-color:#999;stop-opacity:.4"/></linearGradient><path d="M57.7,62.2H37.5c-0.2,0-0.3-0.2-0.3-0.4c0-0.2,0.1-0.3,0.3-0.3h20.2c0.2,0,0.3,0.2,0.3,0.4 C58,62,57.8,62.2,57.7,62.2z" class="st17"/><linearGradient id="SVGID_17_" x1="44.934" x2="58.006" y1="28.835" y2="28.835" gradientTransform="matrix(1 0 0 -1 0 96)" gradientUnits="userSpaceOnUse"><stop offset="0" style="stop-color:#ccc;stop-opacity:.8"/><stop offset="1" style="stop-color:#999;stop-opacity:.4"/></linearGradient><path d="M57.7,67.5H45.2c-0.2,0-0.3-0.2-0.3-0.4c0-0.2,0.1-0.3,0.3-0.3c0,0,0,0,0,0h12.4c0.2,0,0.3,0.2,0.3,0.3 c0,0,0,0,0,0C58,67.3,57.9,67.5,57.7,67.5z" class="st18"/></g><polyline points="14.9 78 54.5 77.3 8.4 46.6 8.4 71.3" class="st19"/><polygon points="2.9 93.7 66.1 51.5 66.1 92.8" class="st19"/><path d="M47.2,22.5H6.6V40c0,2.7,1.8,4.8,4,4.8h40.5V27.3C51.2,24.6,49.4,22.5,47.2,22.5z" class="st20"/><path d="M75.9,0H49.6v9.3c0,1.4,1.2,2.6,2.6,2.6h26.3V2.6C78.5,1.2,77.3,0,75.9,0z" class="st20"/><line x1="18.8" x2="57.9" y1="30.1" y2="30.1" class="st19"/><line x1="14.1" x2="27.4" y1="25.7" y2="25.7" class="st19"/><line x1="6.8" x2="25.6" y1="74.6" y2="74.6" class="st19"/><line x1="4.5" x2="10.9" y1="71.4" y2="71.4" class="st19"/><line x1=".4" x2="15.6" y1="78" y2="78" class="st19"/><line x1="1" x2="15" y1="25.7" y2="25.7" class="st19"/><line x1="60.5" x2="67.7" y1="30.1" y2="30.1" class="st19"/><path d="M47,5.8h16.9h1.2C67.2,5.8,71,5.5,71,10l0.1,8" class="st19"/><circle cx="66.1" cy="51.6" r="1.8" class="st21"/><circle cx="66.1" cy="51.6" r="12.8" class="st22"/></g></g></svg>