<svg xmlns="http://www.w3.org/2000/svg" xmlns:xlink="http://www.w3.org/1999/xlink" id="图层_1" x="0" y="0" version="1.1" viewBox="0 0 106.9 94.9" xml:space="preserve" style="enable-background:new 0 0 106.9 94.9"><style type="text/css">@keyframes a1{50%{transform:translate(5px,0)}}@keyframes a2{50%{transform:rotate(12deg)}}@keyframes a3{50%{transform:translate(10px,0)}}.st0{opacity:.15;fill:#00af92;enable-background:new}.st1{fill:none;stroke:#00af92;stroke-width:.75;stroke-linecap:round;stroke-linejoin:round}.st2,.st3{opacity:.3}.st3{fill:url(#SVGID_1_);enable-background:new}.st4{fill:url(#SVGID_2_)}.st5{fill:url(#SVGID_3_)}.st6{opacity:.5}.st7{fill:url(#SVGID_4_)}.st8{fill:url(#SVGID_5_)}.st9{fill:url(#SVGID_6_)}.st10{opacity:.3;fill:url(#SVGID_7_);enable-background:new}.st11{fill:url(#SVGID_8_)}.st12{fill:url(#SVGID_9_)}.st13{fill:url(#SVGID_10_)}.st14{fill:url(#SVGID_11_)}.st15{fill:url(#SVGID_12_)}.st16,.st17{opacity:.3;fill:url(#SVGID_13_)}.st17{fill:url(#SVGID_14_)}.st18,.st19{opacity:.3;fill:url(#SVGID_15_)}.st19{fill:url(#SVGID_16_)}.st20,.st21{opacity:.3;fill:url(#SVGID_17_)}.st21{fill:url(#SVGID_18_)}.st22{opacity:.15}.st23{fill:#00af92}.a1{animation:a1 5s linear infinite}.a2{transform-origin:58px 45px;animation:a2 3s linear infinite}.a3{animation:a3 4s infinite}</style><g id="图层_2_1_"><g id="Diagram"><circle cx="31.6" cy="24.5" r="4.1" class="st0"/><circle cx="14.2" cy="50.3" r="8.7" class="st0"/><g class="st2"><linearGradient id="SVGID_1_" x1="95.051" x2="-580.429" y1="77.049" y2="-427.071" gradientTransform="matrix(1 0 0 -1 0 96)" gradientUnits="userSpaceOnUse"><stop offset="0" style="stop-color:gray"/><stop offset="1" style="stop-color:gray"/></linearGradient><circle cx="59.9" cy="45.2" r="45.2" class="st3"/></g><g class="st2"><linearGradient id="SVGID_2_" x1="57.737" x2="78.317" y1="69.314" y2="60.114" gradientTransform="matrix(1 0 0 -1 0 96)" gradientUnits="userSpaceOnUse"><stop offset="0" style="stop-color:#ccc;stop-opacity:.8"/><stop offset="1" style="stop-color:#999;stop-opacity:.4"/></linearGradient><path d="M65.7,31.8l-9.6,5.9h-6.6V11.3h6.6l9.6,5.9c1.7,1,2.7,2.9,2.7,4.8v5C68.4,29,67.3,30.8,65.7,31.8z" class="st4"/></g><g class="st2"><linearGradient id="SVGID_3_" x1="47.9" x2="51.12" y1="89.77" y2="41.42" gradientTransform="matrix(1 0 0 -1 0 96)" gradientUnits="userSpaceOnUse"><stop offset="0" style="stop-color:#ccc;stop-opacity:.8"/><stop offset="1" style="stop-color:#999;stop-opacity:.4"/></linearGradient><path d="M56.1,11.3H36.3c3.6,0,6.6,5.9,6.6,13.2s-3,13.2-6.6,13.2h19.8c3.6,0,6.6-5.9,6.6-13.2S59.8,11.3,56.1,11.3z" class="st5"/></g><g class="st6"><linearGradient id="SVGID_4_" x1="28.41" x2="68.15" y1="71.52" y2="71.52" gradientTransform="matrix(1 0 0 -1 0 96)" gradientUnits="userSpaceOnUse"><stop offset="0" style="stop-color:#ccc;stop-opacity:.8"/><stop offset="1" style="stop-color:#999;stop-opacity:.4"/></linearGradient><ellipse cx="36.3" cy="24.5" class="st7" rx="6.6" ry="13.2"/></g><g class="st6"><linearGradient id="SVGID_5_" x1="35.731" x2="94.801" y1="73.665" y2="56.065" gradientTransform="matrix(1 0 0 -1 0 96)" gradientUnits="userSpaceOnUse"><stop offset="0" style="stop-color:#ccc;stop-opacity:.8"/><stop offset="1" style="stop-color:#999;stop-opacity:.4"/></linearGradient><ellipse cx="42.9" cy="24.5" class="st8" rx="6.6" ry="13.2"/></g><g class="st6"><linearGradient id="SVGID_6_" x1="42.331" x2="101.391" y1="73.662" y2="56.062" gradientTransform="matrix(1 0 0 -1 0 96)" gradientUnits="userSpaceOnUse"><stop offset="0" style="stop-color:#ccc;stop-opacity:.8"/><stop offset="1" style="stop-color:#999;stop-opacity:.4"/></linearGradient><ellipse cx="49.5" cy="24.5" class="st9" rx="6.6" ry="13.2"/></g><g class="a1"><g class="st2"><linearGradient id="SVGID_7_" x1="357.178" x2="377.757" y1="-2580.946" y2="-2590.146" gradientTransform="matrix(-1 0 0 1 419.2 2644.6599)" gradientUnits="userSpaceOnUse"><stop offset="0" style="stop-color:gray"/><stop offset="1" style="stop-color:gray"/></linearGradient><path d="M54.1,58.6l9.6-5.9h6.6v26.4h-6.6l-9.6-5.9c-1.7-1-2.7-2.9-2.7-4.8v-5C51.4,61.5,52.4,59.6,54.1,58.6z" class="st10"/></g><g class="st2"><linearGradient id="SVGID_8_" x1="347.334" x2="350.554" y1="-2560.481" y2="-2608.841" gradientTransform="matrix(-1 0 0 1 419.2 2644.6599)" gradientUnits="userSpaceOnUse"><stop offset="0" style="stop-color:#ccc;stop-opacity:.8"/><stop offset="1" style="stop-color:#999;stop-opacity:.4"/></linearGradient><path d="M63.7,79.1h19.8c-3.6,0-6.6-5.9-6.6-13.2s3-13.2,6.6-13.2H63.7c-3.6,0-6.6,5.9-6.6,13.2S60,79.1,63.7,79.1z" class="st11"/></g><g class="st2"><linearGradient id="SVGID_9_" x1="327.85" x2="367.59" y1="-2578.75" y2="-2578.75" gradientTransform="matrix(-1 0 0 1 419.2 2644.6599)" gradientUnits="userSpaceOnUse"><stop offset="0" style="stop-color:#ccc;stop-opacity:.8"/><stop offset="1" style="stop-color:#999;stop-opacity:.4"/></linearGradient><ellipse cx="83.4" cy="65.9" class="st12" rx="6.6" ry="13.2"/></g><g class="st2"><linearGradient id="SVGID_10_" x1="335.178" x2="394.238" y1="-2576.607" y2="-2594.206" gradientTransform="matrix(-1 0 0 1 419.2 2644.6599)" gradientUnits="userSpaceOnUse"><stop offset="0" style="stop-color:#ccc;stop-opacity:.8"/><stop offset="1" style="stop-color:#999;stop-opacity:.4"/></linearGradient><ellipse cx="76.8" cy="65.9" class="st13" rx="6.6" ry="13.2"/></g><g class="st2"><linearGradient id="SVGID_11_" x1="341.768" x2="400.828" y1="-2576.607" y2="-2594.206" gradientTransform="matrix(-1 0 0 1 419.2 2644.6599)" gradientUnits="userSpaceOnUse"><stop offset="0" style="stop-color:#ccc;stop-opacity:.8"/><stop offset="1" style="stop-color:#999;stop-opacity:.4"/></linearGradient><ellipse cx="70.2" cy="65.9" class="st14" rx="6.6" ry="13.2"/></g><g class="st2"><linearGradient id="SVGID_12_" x1="59.89" x2="59.89" y1="29.71" y2="71.93" gradientTransform="matrix(1 0 0 -1 0 96)" gradientUnits="userSpaceOnUse"><stop offset="0" style="stop-color:#ccc;stop-opacity:.8"/><stop offset="1" style="stop-color:#999;stop-opacity:.4"/></linearGradient><path d="M57.1,66.3H26c-5.9-0.2-10.6-5.1-10.4-11.1C15.8,49.6,20.3,45,26,44.8h67.8c5.5,0,10-4.5,10-10 s-4.5-10-10-10H62.7c-0.2,0-0.4-0.2-0.4-0.4l0,0c0-0.2,0.2-0.4,0.4-0.4c0,0,0,0,0,0h31.1c5.9,0.2,10.6,5.1,10.4,11.1 c-0.2,5.7-4.7,10.2-10.4,10.4H26c-5.5,0-10,4.5-10,10s4.5,10,10,10h31.1c0.2,0,0.3,0.2,0.3,0.4C57.3,66.1,57.2,66.3,57.1,66.3z" class="st15"/></g></g><linearGradient id="SVGID_13_" x1="15.25" x2="17.88" y1="71.52" y2="71.52" gradientTransform="matrix(1 0 0 -1 0 96)" gradientUnits="userSpaceOnUse"><stop offset="0" style="stop-color:#ccc;stop-opacity:.8"/><stop offset="1" style="stop-color:#999;stop-opacity:.4"/></linearGradient><path d="M16.6,25.8c-0.7,0-1.3-0.6-1.3-1.3c0-0.7,0.6-1.3,1.3-1.3c0.7,0,1.3,0.6,1.3,1.3c0,0,0,0,0,0 C17.9,25.2,17.3,25.8,16.6,25.8z M16.6,23.9c-0.3,0-0.6,0.2-0.6,0.5c0,0,0,0,0,0c0,0.3,0.2,0.6,0.5,0.6s0.6-0.2,0.6-0.5 c0-0.1,0-0.1,0-0.2C17.1,24.2,16.9,23.9,16.6,23.9z" class="st16"/><linearGradient id="SVGID_14_" x1="22.78" x2="25.42" y1="71.52" y2="71.52" gradientTransform="matrix(1 0 0 -1 0 96)" gradientUnits="userSpaceOnUse"><stop offset="0" style="stop-color:#ccc;stop-opacity:.8"/><stop offset="1" style="stop-color:#999;stop-opacity:.4"/></linearGradient><path d="M24.1,25.8c-0.7,0-1.3-0.6-1.3-1.3s0.6-1.3,1.3-1.3c0.7,0,1.3,0.6,1.3,1.3l0,0 C25.4,25.2,24.8,25.8,24.1,25.8z M24.1,23.9c-0.3,0-0.6,0.2-0.6,0.6c0,0.3,0.3,0.6,0.6,0.6c0.3,0,0.6-0.3,0.6-0.6 C24.7,24.2,24.4,23.9,24.1,23.9z" class="st17"/><linearGradient id="SVGID_15_" x1="30.31" x2="32.95" y1="71.519" y2="71.519" gradientTransform="matrix(1 0 0 -1 0 96)" gradientUnits="userSpaceOnUse"><stop offset="0" style="stop-color:#ccc;stop-opacity:.8"/><stop offset="1" style="stop-color:#999;stop-opacity:.4"/></linearGradient><path d="M31.6,25.8c-0.7,0-1.3-0.6-1.3-1.4c0-0.7,0.6-1.3,1.4-1.3c0.7,0,1.3,0.6,1.3,1.3 C33,25.2,32.4,25.8,31.6,25.8C31.7,25.8,31.6,25.8,31.6,25.8z M31.6,23.9c-0.3,0-0.6,0.3-0.6,0.6c0,0.3,0.2,0.6,0.6,0.6 c0.3,0,0.6-0.3,0.6-0.6C32.2,24.2,31.9,23.9,31.6,23.9z" class="st18"/><linearGradient id="SVGID_16_" x1="86.81" x2="89.45" y1="30.09" y2="30.09" gradientTransform="matrix(1 0 0 -1 0 96)" gradientUnits="userSpaceOnUse"><stop offset="0" style="stop-color:#ccc;stop-opacity:.8"/><stop offset="1" style="stop-color:#999;stop-opacity:.4"/></linearGradient><path d="M88.1,67.2c-0.7,0-1.3-0.6-1.3-1.3s0.6-1.3,1.3-1.3c0.7,0,1.3,0.6,1.3,1.3l0,0 C89.4,66.6,88.9,67.2,88.1,67.2z M88.1,65.4c-0.3,0-0.6,0.2-0.6,0.5s0.2,0.6,0.5,0.6c0.1,0,0.1,0,0.2,0c0.3,0,0.5-0.3,0.5-0.6 C88.6,65.6,88.4,65.4,88.1,65.4z" class="st19"/><linearGradient id="SVGID_17_" x1="94.34" x2="96.98" y1="30.09" y2="30.09" gradientTransform="matrix(1 0 0 -1 0 96)" gradientUnits="userSpaceOnUse"><stop offset="0" style="stop-color:#ccc;stop-opacity:.8"/><stop offset="1" style="stop-color:#999;stop-opacity:.4"/></linearGradient><path d="M95.7,67.2c-0.7,0-1.3-0.6-1.3-1.3c0-0.7,0.6-1.3,1.3-1.3c0.7,0,1.3,0.6,1.3,1.3 C97,66.6,96.4,67.2,95.7,67.2C95.7,67.2,95.7,67.2,95.7,67.2z M95.7,65.4c-0.3,0-0.5,0.3-0.5,0.6c0,0.3,0.2,0.5,0.5,0.5 c0.3,0,0.6-0.2,0.6-0.5s-0.2-0.6-0.5-0.6C95.8,65.3,95.7,65.3,95.7,65.4z" class="st20"/><linearGradient id="SVGID_18_" x1="101.88" x2="104.51" y1="30.09" y2="30.09" gradientTransform="matrix(1 0 0 -1 0 96)" gradientUnits="userSpaceOnUse"><stop offset="0" style="stop-color:#ccc;stop-opacity:.8"/><stop offset="1" style="stop-color:#999;stop-opacity:.4"/></linearGradient><path d="M103.2,67.2c-0.7,0-1.3-0.6-1.3-1.3s0.6-1.3,1.3-1.3s1.3,0.6,1.3,1.3c0,0,0,0,0,0 C104.5,66.6,103.9,67.2,103.2,67.2z M103.2,65.4c-0.3,0-0.6,0.2-0.6,0.6c0,0.3,0.2,0.6,0.6,0.6c0.3,0,0.6-0.2,0.6-0.6c0,0,0,0,0,0 C103.8,65.6,103.5,65.3,103.2,65.4C103.2,65.3,103.2,65.3,103.2,65.4z" class="st21"/><line x1=".4" x2="53.5" y1="49.6" y2="49.6" class="st1 a3"/><line x1="78.2" x2="106.6" y1="28.5" y2="28.5" class="st1"/><path d="M96.2,33.3c4.2,0,7.7,3.4,7.7,7.7s-3.4,7.7-7.7,7.7" class="st1"/><path d="M96.2,37.5c4.2,0,7.7,3.4,7.7,7.7s-3.4,7.7-7.7,7.7" class="st1"/><line x1="96.2" x2="96.2" y1="48.7" y2="52.9" class="st1"/><line x1="96.2" x2="96.2" y1="33.3" y2="37.5" class="st1"/><g class="st22"><path d="M96.2,37.5c3.4,0,6.5,2.3,7.4,5.6v0.1v-0.1c1.2-4.1-1.2-8.3-5.3-9.5c-0.7-0.2-1.4-0.3-2.1-0.3V37.5z" class="st23"/></g><g class="a1"><ellipse cx="31.1" cy="24.5" class="st1" rx="6.3" ry="12.6"/><path d="M46.1,24.5c0-7-2.8-12.6-6.3-12.6" class="st1"/><path d="M52.7,24.5c0-7-2.8-12.6-6.3-12.6" class="st1"/><path d="M52.7,23.2c0.1,3.1-0.6,6.2-1.9,9" class="st1"/><path d="M31.1,37.1H53l9-5.7c1.6-1,2.5-2.7,2.5-4.5v-4.7c0-1.8-1-3.6-2.5-4.5l-9-5.7H31.1" class="st1"/></g><g><path d="M55,60h7.2c-1,3-1.2,6.2-0.6,9.2h-7.1C54,66.2,54.1,63,54.9,60" class="st0"/><path d="M67.6,64.6c0,0-0.5,8.5,3.7,12.6h4c0,0-4-3.9-3.7-12.6H67.6z" class="st0"/><path d="M49.2,60h4c-1,3-1.2,6.2-0.6,9.2h-3.9c-0.5-3.1-0.4-6.2,0.4-9.2" class="st0"/></g><g class="a2"><path d="M100.2,66.3c-4.3,8.4-11.2,15.3-19.8,19.4" class="st1"/><path d="M93.5,81.9C80.4,93.7,62,97.6,45.4,92" class="st1"/><circle cx="79.4" cy="86.2" r="1.1" class="st1"/><circle cx="75.4" cy="87.7" r="1.1" class="st1"/><circle cx="70.9" cy="89" r="1.1" class="st1"/></g><path d="M15.5,55.4c0.2,4.5,3.1,8.4,7.3,10l25.6,0.2" class="st1"/><path d="M21.3,44.2c0,0-10.3,2.7-7.7,12.9" class="st1"/><line x1="99.5" x2="99.5" y1="47.9" y2="52.1" class="st1"/><line x1="102.1" x2="102.1" y1="46" y2="50.2" class="st1"/></g></g></svg>