<svg xmlns="http://www.w3.org/2000/svg" xmlns:xlink="http://www.w3.org/1999/xlink" viewBox="0 0 1960.3 1080.6"><defs><style>@keyframes a1{30%{stroke-dasharray:0}70%{stroke-dasharray:1800}}@keyframes a2{30%{stroke-dasharray:0}70%{stroke-dasharray:1500}}@keyframes a3{50%{transform:translate(538.9px,195px)}}.cls-1,.cls-10,.cls-4,.cls-5,.cls-6,.cls-7,.cls-8,.cls-9{fill:none}.cls-2{clip-path:url(#clip-path)}.cls-3{opacity:.5}.cls-10,.cls-4,.cls-5,.cls-6,.cls-7,.cls-8,.cls-9{stroke:#00e890;stroke-miterlimit:10}.cls-4{stroke-width:1.01px}.cls-5{stroke-width:.72px}.cls-6{stroke-width:.39px}.cls-7{stroke-width:.27px}.cls-8{stroke-width:.4px}.cls-9{stroke-width:.17px}.cls-10{stroke-width:.3px}.a1,.a2{animation:a1 5s linear infinite;animation-direction:alternate}.a2{animation:a2 10s linear infinite;stroke-dasharray:800}.a3{animation:a3 10s cubic-bezier(.7,.3,.1,1) infinite;stroke-width:.6px}</style><clipPath id="clip-path" transform="translate(116.6 113.5)"><rect width="1402" height="820.22" class="cls-1"/></clipPath></defs><g id="Layer_2" data-name="Layer 2"><g id="Layer_1-2" data-name="Layer 1"><g class="cls-2"><g class="cls-3"><polygon points="922.1 379.5 922.1 683.2 1119.3 754 1119.3 447.7 1332.6 369.2 1139 299.9 922.1 379.5" class="cls-4"/><polygon points="1175.5 591.5 1175.4 477.1 1332.6 533.4 1175.5 591.5" class="cls-4"/><polygon points="1135.4 621.6 1135.4 753.5 1332.6 680.4 1332.6 548.7 1135.4 621.6" class="cls-4"/><circle cx="1128.4" cy="497.2" r="277.7" class="cls-5 a1"/><circle cx="922.9" cy="532" r="151.5" class="cls-6 a2"/><circle cx="1020.7" cy="716.1" r="105.9" class="cls-7"/><line x1="523.9" x2="1777.9" y1="80.5" y2="528" class="cls-8"/><line x1="921.7" x2="921.7" y1="31.2" y2="1078.6" class="cls-8"/><line x1="1119.3" x2="1119.3" y1="33.3" y2="1080.6" class="cls-8"/><line x1="142.3" x2="1960.3" y1="960.7" y2="308.6" class="cls-8"/><line x1="93.4" x2="1911.3" y1="813.8" y2="161.7" class="cls-8"/><circle cx="1332.6" cy="614.2" r="65.6" class="cls-9"/><circle cx="1030.6" cy="339.7" r="115.9" class="cls-10 a1"/><line xmlns="http://www.w3.org/2000/svg" x1=".1" x2="380" y1="348.8" y2="487" class="cls-8 a3"/><line x1=".1" x2="1825.9" y1="348.8" y2="1010" class="cls-8"/><line x1="293.8" x2="293.8" y2="1047.3" class="cls-8"/></g></g></g></g></svg>