<svg xmlns="http://www.w3.org/2000/svg" xmlns:xlink="http://www.w3.org/1999/xlink" id="Layer_1" x="0" y="0" version="1.1" viewBox="0 0 86 86" xml:space="preserve" style="enable-background:new 0 0 86 86"><style type="text/css">.st0{fill:#d9dbdc}.st1{fill:#2b393f}.st2{fill:#02e49b}</style><title>Artboard 66</title><rect width="4.1" height="16.6" x="40.9" y="20.2" class="st0"/><rect width="4.1" height="17.6" x="16.5" y="33.7" class="st0"/><rect width="4.1" height="17.6" x="65.3" y="33.7" class="st0"/><rect width="4.1" height="16.6" x="40.9" y="48.5" class="st0"/><rect width="16.6" height="4.1" x="22.3" y="47.8" class="st0" transform="matrix(0.866 -0.5 0.5 0.866 -20.8334 21.999)"/><rect width="18.6" height="4.1" x="21.3" y="19.6" class="st0" transform="matrix(0.866 -0.5 0.5 0.866 -6.7095 18.1876)"/><rect width="4.1" height="18.6" x="52.6" y="11.9" class="st0" transform="matrix(0.5 -0.866 0.866 0.5 8.933 57.97)"/><rect width="4.1" height="18.6" x="28.5" y="54.3" class="st0" transform="matrix(0.5 -0.866 0.866 0.5 -39.8307 58.3101)"/><rect width="18.6" height="4.1" x="45.4" y="62" class="st0" transform="matrix(0.866 -0.5 0.5 0.866 -24.6789 35.9097)"/><rect width="4.1" height="16.6" x="53.2" y="41.3" class="st0" transform="matrix(0.5 -0.866 0.866 0.5 -15.2994 72.6244)"/><rect width="4.1" height="16.6" x="28.6" y="27.2" class="st0" transform="matrix(0.5 -0.866 0.866 0.5 -15.4664 44.2984)"/><rect width="16.6" height="4.1" x="46.9" y="33.8" class="st0" transform="matrix(0.866 -0.5 0.5 0.866 -10.5275 32.4245)"/><path d="M42.6,7.8l-5.3,3c-0.3,0.1-0.4,0.4-0.4,0.7v6.1c0,0.3,0.1,0.6,0.4,0.8l5.3,3.1c0.3,0.1,0.6,0.1,0.8,0l5.3-3.1	c0.3-0.1,0.4-0.4,0.4-0.7v-6.2c0-0.3-0.2-0.6-0.4-0.7l-5.3-3C43.1,7.7,42.8,7.7,42.6,7.8z" class="st1"/><path d="M18.2,21.7l-5.3,3c-0.3,0.1-0.4,0.4-0.4,0.7v6.1c0,0.3,0.2,0.6,0.4,0.7l5.3,3.1c0.3,0.1,0.6,0.1,0.8,0l5.3-3.1	c0.3-0.1,0.4-0.4,0.4-0.7v-6.1c0-0.3-0.2-0.6-0.4-0.7l-5.3-3C18.8,21.6,18.5,21.6,18.2,21.7z" class="st2"/><path d="M18.1,50L12.8,53c-0.3,0.1-0.4,0.4-0.4,0.7v6.1c0,0.3,0.2,0.6,0.4,0.7l5.3,3.1c0.3,0.1,0.6,0.1,0.8,0l5.3-3.1	c0.3-0.1,0.4-0.4,0.4-0.7v-6.1c0-0.3-0.2-0.6-0.4-0.7L18.9,50C18.6,49.8,18.3,49.8,18.1,50z" class="st1"/><path d="M42.6,35.8l-5.3,3c-0.3,0.1-0.4,0.4-0.4,0.7v6.1c0,0.3,0.2,0.6,0.4,0.7l5.3,3.1c0.3,0.1,0.6,0.1,0.8,0l5.3-3.1	c0.3-0.1,0.4-0.4,0.4-0.7v-6.1c0-0.3-0.2-0.6-0.4-0.7l-5.3-3.1C43.1,35.7,42.8,35.7,42.6,35.8z" class="st1"/><path d="M66.9,21.7l-5.3,3c-0.3,0.1-0.4,0.4-0.4,0.7v6.1c0,0.3,0.2,0.6,0.4,0.7l5.3,3.1c0.3,0.1,0.6,0.1,0.8,0l5.3-3.1	c0.3-0.1,0.4-0.4,0.4-0.7v-6.1c0-0.3-0.2-0.6-0.4-0.7l-5.3-3C67.5,21.6,67.2,21.6,66.9,21.7z" class="st2"/><path d="M42.6,63.9L37.3,67c-0.3,0.1-0.4,0.4-0.4,0.7v6.1c0,0.3,0.2,0.6,0.4,0.7l5.3,3.1c0.3,0.1,0.6,0.1,0.8,0l5.3-3.1	c0.3-0.1,0.4-0.4,0.4-0.7v-6.1c0-0.3-0.2-0.6-0.4-0.7l-5.3-3.1C43.1,63.8,42.8,63.8,42.6,63.9z" class="st2"/><path d="M67.1,50L61.8,53c-0.3,0.1-0.4,0.4-0.4,0.7v6.1c0,0.3,0.2,0.6,0.4,0.7l5.3,3.1c0.3,0.1,0.6,0.1,0.8,0l5.3-3.1	c0.3-0.1,0.4-0.4,0.4-0.7v-6.1c0-0.3-0.2-0.6-0.4-0.7L67.9,50C67.7,49.8,67.4,49.8,67.1,50z" class="st1"/></svg>